<svg width="96" height="96" viewBox="0 0 96 96" fill="none" xmlns="http://www.w3.org/2000/svg">
<g clip-path="url(#clip0)">
<path d="M95.3926 40.2928L80.0677 16.9242C79.7221 16.3975 79.1348 16.0801 78.5049 16.0801H17.2665C16.6379 16.0801 16.0516 16.396 15.7058 16.921L0.356228 40.2199C0.283145 40.3206 0.219782 40.4294 0.166886 40.5457C-0.136098 41.2137 -0.0202124 41.9971 0.463141 42.5488L8.24334 51.4322C8.92351 52.2088 10.104 52.2869 10.8805 51.6069C11.6569 50.9268 11.735 49.746 11.055 48.9698L5.9903 43.1866H31.1301L43.7629 86.3158L29.4875 70.0162C28.8075 69.2396 27.6266 69.1615 26.8504 69.8415C26.074 70.5216 25.9958 71.7024 26.6758 72.4786L46.4492 95.0558C46.804 95.4611 47.3166 95.6936 47.8551 95.6936C48.3938 95.6936 48.9061 95.4611 49.2609 95.0557L70.3128 71.0128C70.9929 70.2362 70.9146 69.0555 70.1378 68.3757C69.361 67.6955 68.1803 67.7738 67.5007 68.5507L51.9478 86.3134L64.58 43.1864H89.7093L78.0866 56.4608C77.4064 57.2375 77.4847 58.4182 78.2616 59.098C78.6161 59.4086 79.055 59.561 79.492 59.561C80.012 59.561 80.5293 59.3451 80.8987 58.923L95.2359 42.5486C95.7888 41.9172 95.8529 40.9946 95.3926 40.2928ZM5.3406 39.4487L17.2628 21.3517L29.1307 39.4487H5.3406ZM20.727 19.8181H44.3943L32.5607 37.8628L20.727 19.8181ZM47.8549 21.3572L59.7192 39.4487H35.9907L47.8549 21.3572ZM47.8549 86.9893L35.025 43.1866H60.6849L47.8549 86.9893ZM63.1798 37.9097L51.3156 19.8181H75.0444L63.1798 37.9097ZM66.6405 39.4487L78.5049 21.3572L90.3689 39.4487H66.6405Z" fill="#D5AC63"/>
<path d="M29.3801 61.123C24.5591 61.123 20.6368 57.2007 20.6368 52.3797C20.6368 51.3475 19.8 50.5107 18.7678 50.5107C17.7357 50.5107 16.8989 51.3475 16.8989 52.3797C16.8989 57.2007 12.9766 61.123 8.15555 61.123C7.12361 61.123 6.28662 61.9598 6.28662 62.992C6.28662 64.0241 7.12361 64.8609 8.15555 64.8609C12.9766 64.8609 16.8989 68.7832 16.8989 73.6042C16.8989 74.6364 17.7359 75.4732 18.7678 75.4732C19.7998 75.4732 20.6368 74.6364 20.6368 73.6042C20.6368 68.7832 24.5591 64.8609 29.3801 64.8609C30.4122 64.8609 31.249 64.0241 31.249 62.992C31.249 61.9598 30.4122 61.123 29.3801 61.123ZM18.7678 67.0406C17.749 65.3992 16.3606 64.011 14.7193 62.992C16.3606 61.9731 17.7488 60.5849 18.7678 58.9433C19.7867 60.5847 21.1751 61.9729 22.8163 62.992C21.1751 64.011 19.7869 65.399 18.7678 67.0406Z" fill="#D5AC63"/>
<path d="M93.8296 7.4806C90.7381 7.4806 88.2229 4.96533 88.2229 1.87381C88.2229 0.841686 87.3859 0.00488281 86.3539 0.00488281C85.322 0.00488281 84.485 0.841686 84.485 1.87381C84.485 4.96533 81.9697 7.4806 78.8782 7.4806C77.8463 7.4806 77.0093 8.3174 77.0093 9.34953C77.0093 10.3817 77.8463 11.2185 78.8782 11.2185C81.9697 11.2185 84.485 13.7337 84.485 16.8252C84.485 17.8574 85.322 18.6942 86.3539 18.6942C87.3859 18.6942 88.2229 17.8574 88.2229 16.8252C88.2229 13.7337 90.7381 11.2185 93.8296 11.2185C94.8616 11.2185 95.6986 10.3817 95.6986 9.34953C95.6986 8.3174 94.8616 7.4806 93.8296 7.4806ZM86.3539 11.2243C85.8207 10.5144 85.1891 9.88279 84.4792 9.34953C85.1891 8.81627 85.8207 8.1847 86.3539 7.47481C86.8872 8.1847 87.5188 8.81627 88.2286 9.34953C87.5188 9.8826 86.887 10.5144 86.3539 11.2243Z" fill="#D5AC63"/>
<path d="M75.2847 62.6844C74.9373 62.3348 74.455 62.1367 73.9637 62.1367C73.4719 62.1367 72.9919 62.3348 72.6424 62.6844C72.2947 63.032 72.0947 63.5143 72.0947 64.0056C72.0947 64.497 72.2945 64.9793 72.6424 65.3269C72.99 65.6746 73.4719 65.8746 73.9637 65.8746C74.4552 65.8746 74.9373 65.6746 75.2847 65.3269C75.6324 64.9793 75.8326 64.497 75.8326 64.0056C75.8326 63.5143 75.6326 63.032 75.2847 62.6844Z" fill="#D5AC63"/>
</g>
<defs>
<clipPath id="clip0">
<rect width="95.6987" height="95.6987" fill="white"/>
</clipPath>
</defs>
</svg>
