<svg width="59" height="59" viewBox="0 0 59 59" fill="none" xmlns="http://www.w3.org/2000/svg">
<g clip-path="url(#clip0)">
<path d="M54.6658 32.9427L53.1436 26.854C53.5598 26.7656 53.8721 26.3963 53.8721 25.954V24.9723C53.8721 22.8408 52.1379 21.1068 50.0065 21.1068H43.0732V19.0819C43.0732 18.0331 42.2199 17.1798 41.1711 17.1798H28.279L36.1134 14.0461C36.5854 13.8573 36.8149 13.3217 36.6261 12.8497C36.4374 12.3778 35.902 12.1481 35.4297 12.337L29.0151 14.9028C30.9697 13.6486 32.9037 12.2683 33.6399 11.303C35.0733 9.42375 34.7102 6.7288 32.831 5.29544C30.9517 3.86197 28.2568 4.2251 26.8234 6.10437C25.7761 7.47768 24.3943 11.3364 23.5 14.0556C22.6057 11.3367 21.2239 7.47768 20.1766 6.10437C18.7434 4.2251 16.0483 3.8622 14.169 5.29544C12.2898 6.72868 11.9269 9.42364 13.3601 11.303C14.0964 12.2684 16.0301 13.6486 17.9849 14.9028L11.5703 12.337C11.0981 12.1479 10.5626 12.3777 10.3739 12.8497C10.185 13.3217 10.4146 13.8573 10.8866 14.0461L18.721 17.1798H5.82893C4.78007 17.1798 3.92683 18.0331 3.92683 19.0819V35.7713C3.92683 36.2795 4.33887 36.6917 4.84723 36.6917C5.35547 36.6917 5.76763 36.2797 5.76763 35.7713V19.0819C5.76763 19.0481 5.79507 19.0206 5.82893 19.0206H41.171C41.2048 19.0206 41.2323 19.0481 41.2323 19.0819V35.7715C41.2323 36.2798 41.6443 36.6919 42.1527 36.6919C42.6609 36.6919 43.0731 36.2799 43.0731 35.7715V34.7282H53.9298C53.9309 34.7282 53.9317 34.7284 53.9327 34.7284C53.9337 34.7284 53.9346 34.7283 53.9357 34.7283C55.2716 34.7293 56.4058 35.6062 56.7953 36.8144H53.9334C53.4251 36.8144 53.013 37.2265 53.013 37.7348V39.6982C53.013 41.2884 54.3066 42.5821 55.8968 42.5821H56.9399V46.6316H54.5334C53.7428 44.349 51.5728 42.7047 49.0247 42.7047C46.4766 42.7047 44.3065 44.3489 43.5161 46.6316H43.0729V39.6981C43.0729 39.1899 42.6609 38.7777 42.1525 38.7777C41.6443 38.7777 41.2321 39.1898 41.2321 39.6981V46.6315H22.1366C21.346 44.3489 19.1761 42.7046 16.6279 42.7046C14.0798 42.7046 11.9098 44.3488 11.1193 46.6315H5.82893C5.79507 46.6315 5.76763 46.6041 5.76763 46.5702V44.5454H9.75588C10.2641 44.5454 10.6763 44.1333 10.6763 43.625C10.6763 43.1166 10.2642 42.7046 9.75588 42.7046H0.920401C0.412154 42.7046 0 43.1166 0 43.625C0 44.1333 0.412039 44.5454 0.920401 44.5454H3.92694V46.5702C3.92694 47.6191 4.78018 48.4723 5.82905 48.4723H10.8006C10.8004 48.4927 10.799 48.5131 10.799 48.5336C10.799 51.7476 13.4139 54.3625 16.6279 54.3625C19.8419 54.3625 22.4569 51.7476 22.4569 48.5336C22.4569 48.5129 22.4555 48.4927 22.4553 48.4723H43.1973C43.1971 48.4927 43.1957 48.5131 43.1957 48.5336C43.1957 51.7476 45.8106 54.3625 49.0246 54.3625C52.2386 54.3625 54.8535 51.7476 54.8535 48.5336C54.8535 48.5129 54.8522 48.4927 54.8519 48.4723H57.8602C58.3685 48.4723 58.7806 48.0603 58.7806 47.5519V37.7347C58.7807 35.3107 56.9924 33.2968 54.6658 32.9427ZM19.85 13.8988C16.2195 11.6427 15.1426 10.6048 14.8238 10.1866C14.006 9.11447 14.2131 7.57687 15.2854 6.7591C15.7274 6.42203 16.2484 6.25912 16.7656 6.25912C17.5029 6.25912 18.2324 6.59045 18.713 7.22074C19.6034 8.38809 20.9977 12.3171 21.9182 15.1483C21.297 14.7826 20.5829 14.3544 19.85 13.8988ZM25.082 15.1482C26.0025 12.3171 27.3969 8.3882 28.2871 7.22062C29.1048 6.14845 30.6424 5.94146 31.7146 6.7591C32.7869 7.57687 32.9939 9.11447 32.1762 10.1866C31.8574 10.6046 30.7805 11.6427 27.1503 13.8987C26.4175 14.3542 25.7034 14.7824 25.082 15.1482ZM43.0732 22.9473H50.0065C51.123 22.9473 52.0314 23.8557 52.0314 24.9722V25.0335H43.0732V22.9473ZM43.0732 32.8874V26.8743H51.2514L52.7547 32.8874H43.0732ZM16.6279 52.5219C14.4288 52.5219 12.6397 50.7327 12.6397 48.5336C12.6397 46.3345 14.4288 44.5454 16.6279 44.5454C18.8271 44.5454 20.6162 46.3345 20.6162 48.5336C20.6162 50.7327 18.8271 52.5219 16.6279 52.5219ZM49.0248 52.5219C46.8257 52.5219 45.0366 50.7327 45.0366 48.5336C45.0366 46.3345 46.8257 44.5454 49.0248 44.5454C51.224 44.5454 53.0131 46.3345 53.0131 48.5336C53.0131 50.7327 51.224 52.5219 49.0248 52.5219ZM56.94 40.7411H55.8969C55.3217 40.7411 54.8538 40.2732 54.8538 39.698V38.6549H56.9399V40.7411H56.94Z" fill="#41484E"/>
<path d="M16.6282 46.6309C15.5793 46.6309 14.7261 47.4841 14.7261 48.533C14.7261 49.5818 15.5793 50.4351 16.6282 50.4351C17.6771 50.4351 18.5303 49.5818 18.5303 48.533C18.5303 47.4841 17.6771 46.6309 16.6282 46.6309Z" fill="#41484E"/>
<path d="M49.0252 46.6309C47.9763 46.6309 47.123 47.4841 47.123 48.533C47.123 49.5818 47.9763 50.4351 49.0252 50.4351C50.074 50.4351 50.9273 49.5818 50.9273 48.533C50.9273 47.4841 50.074 46.6309 49.0252 46.6309Z" fill="#41484E"/>
<path d="M38.226 42.7031H24.4819C23.9737 42.7031 23.5615 43.1152 23.5615 43.6235C23.5615 44.1319 23.9736 44.5439 24.4819 44.5439H38.226C38.7343 44.5439 39.1464 44.1319 39.1464 43.6235C39.1464 43.1152 38.7344 42.7031 38.226 42.7031Z" fill="#41484E"/>
<path d="M14.665 38.7773H2.88427C2.37602 38.7773 1.96387 39.1894 1.96387 39.6977C1.96387 40.2061 2.37591 40.6181 2.88427 40.6181H14.665C15.1732 40.6181 15.5854 40.2061 15.5854 39.6977C15.5854 39.1894 15.1732 38.7773 14.665 38.7773Z" fill="#41484E"/>
<path d="M14.6647 25.0332H10.7378C10.2295 25.0332 9.81738 25.4452 9.81738 25.9536V33.8074C9.81738 34.3156 10.2294 34.7278 10.7378 34.7278C11.2461 34.7278 11.6582 34.3157 11.6582 33.8074V30.8008H13.683C14.1913 30.8008 14.6034 30.3888 14.6034 29.8804C14.6034 29.3721 14.1914 28.96 13.683 28.96H11.6582V26.874H14.6647C15.173 26.874 15.5851 26.462 15.5851 25.9536C15.585 25.4454 15.173 25.0332 14.6647 25.0332Z" fill="#41484E"/>
<path d="M21.9082 31.2324C22.8293 30.6291 23.4394 29.5887 23.4394 28.4079C23.4394 26.547 21.9256 25.0332 20.0647 25.0332H17.6103C17.1021 25.0332 16.6899 25.4452 16.6899 25.9536V33.8074C16.6899 34.3156 17.102 34.7278 17.6103 34.7278C18.1187 34.7278 18.5307 34.3157 18.5307 33.8074V31.7825H20.0629L21.7531 34.3178C21.9305 34.5838 22.2222 34.7278 22.5197 34.7278C22.6952 34.7278 22.8725 34.6777 23.0293 34.573C23.4524 34.2912 23.5666 33.7197 23.2845 33.2968L21.9082 31.2324ZM20.0647 29.9419H18.5307V26.874H20.0647C20.9106 26.874 21.5986 27.562 21.5986 28.4079C21.5986 29.2538 20.9106 29.9419 20.0647 29.9419Z" fill="#41484E"/>
<path d="M29.3908 32.8871H26.3843V30.7978C26.4046 30.7992 26.4249 30.8009 26.4456 30.8009H28.409C28.9172 30.8009 29.3294 30.3889 29.3294 29.8805C29.3294 29.3722 28.9173 28.9601 28.409 28.9601H26.4456C26.4248 28.9601 26.4046 28.9619 26.3843 28.9632V26.874H29.3908C29.899 26.874 30.3112 26.462 30.3112 25.9536C30.3112 25.4454 29.8992 25.0332 29.3908 25.0332H25.4639C24.9556 25.0332 24.5435 25.4452 24.5435 25.9536V33.8074C24.5435 34.3156 24.9555 34.7278 25.4639 34.7278H29.3908C29.899 34.7278 30.3112 34.3157 30.3112 33.8074C30.3112 33.299 29.899 32.8871 29.3908 32.8871Z" fill="#41484E"/>
<path d="M36.2629 32.8871H33.2563V30.8009H34.2995C34.8077 30.8009 35.2199 30.3889 35.2199 29.8805C35.2199 29.3722 34.8078 28.9601 34.2995 28.9601H33.2563V26.874H36.2629C36.7711 26.874 37.1833 26.462 37.1833 25.9536C37.1833 25.4454 36.7712 25.0332 36.2629 25.0332H32.3359C31.8277 25.0332 31.4155 25.4452 31.4155 25.9536V33.8074C31.4155 34.3156 31.8276 34.7278 32.3359 34.7278H36.2629C36.7711 34.7278 37.1833 34.3157 37.1833 33.8074C37.1833 33.299 36.7711 32.8871 36.2629 32.8871Z" fill="#41484E"/>
</g>
<defs>
<clipPath id="clip0">
<rect width="58.7807" height="58.7807" fill="white"/>
</clipPath>
</defs>
</svg>
