<svg width="46" height="61" viewBox="0 0 46 61" fill="none" xmlns="http://www.w3.org/2000/svg">
<mask id="path-1-outside-1" maskUnits="userSpaceOnUse" x="0" y="0" width="46" height="61" fill="black">
<rect fill="white" width="46" height="61"/>
<path d="M40.2612 23.106H37.5599L38.1196 21.4332C38.2704 20.9821 38.0272 20.4942 37.5763 20.3433C37.1249 20.1919 36.6372 20.4357 36.4865 20.8866L35.7439 23.1059H30.2152C30.441 22.4312 32.387 16.6144 32.7558 15.512C34.2291 16.4608 35.9647 16.9761 37.8081 16.9362L37.4234 18.0862C37.2725 18.5373 37.5158 19.0252 37.9666 19.1761C38.418 19.3272 38.9056 19.0838 39.0565 18.6328L39.7119 16.6735C45.5851 15.1727 47.5705 8.32886 43.5329 3.86899C43.0906 3.38037 42.2861 3.55109 42.078 4.17357L40.0704 10.1747L37.104 10.7784L35.098 8.5114L37.2315 2.13427C37.3229 1.86114 37.2718 1.56058 37.0952 1.33303C36.9186 1.10572 36.6396 0.981842 36.3528 1.00216C29.4384 1.50145 26.4033 9.43915 31.3248 14.3613L29.7386 19.1024C17.9518 19.3868 19.4829 23.9983 11.976 24.9571C11.7638 23.9027 10.8306 23.1061 9.71459 23.1061H3.30714C2.03498 23.1061 1 24.1411 1 25.4133V40.6356C1 41.9078 2.03498 42.9428 3.30714 42.9428H9.71459C10.8897 42.9428 11.8605 42.059 12.0021 40.9215C15.953 41.1838 16.29 42.5174 21.7827 42.8837L21.4341 43.9254C18.4198 44.3487 15.896 46.3412 14.9563 49.1501C14.0756 51.7827 14.7406 54.7569 16.6916 56.9119C17.1328 57.3994 17.9379 57.231 18.1465 56.6074L20.1543 50.606L23.1204 50.0024L25.1263 52.2696L22.9928 58.6464C22.7992 59.2253 23.2549 59.8219 23.8714 59.7785C30.3583 59.3105 33.5829 52.2037 29.5237 47.1263L30.9375 42.9009H35.4509C37.1713 42.9009 38.571 41.5012 38.571 39.7806C38.571 39.2001 38.4115 38.656 38.1344 38.19C39.9644 37.5126 40.7304 35.3406 39.7379 33.6718C41.5679 32.9945 42.3339 30.8225 41.3414 29.1537C42.5311 28.7133 43.3814 27.5673 43.3814 26.2262C43.3814 24.5058 41.9816 23.106 40.2612 23.106ZM35.1425 2.9495L33.307 8.43632C33.2093 8.72804 33.2749 9.04973 33.4786 9.28026L36.1434 12.292C36.3473 12.5223 36.6587 12.6262 36.96 12.5652L40.9007 11.7633C41.2022 11.702 41.4481 11.4844 41.5456 11.1927L43.1775 6.31504C43.9888 7.79662 44.1663 9.49644 43.635 11.0844C41.8603 16.3887 34.0842 16.5787 31.3844 11.592C29.4896 8.09224 31.3072 4.01261 35.1425 2.9495ZM29.2953 53.9468C28.6589 55.8491 27.0711 57.2795 25.0818 57.831L26.9174 52.3443C27.0151 52.0525 26.9495 51.7308 26.7457 51.5003L24.081 48.4884C23.8729 48.2534 23.5591 48.155 23.2643 48.2151L19.3237 49.0169C19.0223 49.0783 18.7765 49.2958 18.6789 49.5875L17.047 54.4653C14.3253 49.4941 19.2352 44.0368 24.9112 45.9359C28.3969 47.1031 30.3857 50.687 29.2953 53.9468ZM23.2704 43.8643L23.5781 42.9446C23.5781 42.9446 24.2986 42.9008 29.1215 42.9008L28.1627 45.7666C26.7299 44.63 24.9969 43.9898 23.2704 43.8643ZM40.2613 27.6242C39.0319 27.6242 31.1566 27.6242 29.9161 27.6242C29.4405 27.6242 29.0549 28.0096 29.0549 28.4854C29.0549 28.9611 29.4403 29.3465 29.9161 29.3465H38.658C39.4288 29.3465 40.0559 29.9735 40.0559 30.7443C40.0559 31.5153 39.4288 32.1425 38.658 32.1425C35.3572 32.1425 33.2013 32.1425 29.9161 32.1425C29.4405 32.1425 29.0549 32.5279 29.0549 33.0037C29.0549 33.4793 29.4403 33.8648 29.9161 33.8648H37.0544C37.8252 33.8648 38.4524 34.4918 38.4524 35.2626C38.4524 36.0336 37.8253 36.6608 37.0544 36.6608C36.3179 36.6608 30.6473 36.6608 29.9161 36.6608C29.4405 36.6608 29.0549 37.0462 29.0549 37.522C29.0549 37.9975 29.4403 38.3831 29.9161 38.3831H35.451C36.2218 38.3831 36.8489 39.0101 36.8489 39.7809C36.8489 40.5517 36.2218 41.179 35.451 41.179C35.3951 41.179 24.9907 41.1773 24.9349 41.1817C24.8869 41.1853 20.069 41.544 16.0564 39.9542C15.9046 39.8946 14.1786 39.3258 12.0215 39.1971V30.435C12.0215 29.9594 11.636 29.5738 11.1603 29.5738C10.6847 29.5738 10.2992 29.9592 10.2992 30.435V40.636C10.2992 40.9585 10.0368 41.2208 9.71436 41.2208H3.30714C2.98465 41.2208 2.72232 40.9585 2.72232 40.636V25.413C2.72232 25.0905 2.98465 24.8282 3.30714 24.8282H9.71459C10.0371 24.8282 10.2994 25.0905 10.2994 25.413V27.7937C10.2994 28.2693 10.6849 28.6548 11.1606 28.6548C11.6362 28.6548 12.0217 28.2694 12.0217 27.7937V26.6887C20.1326 25.7665 18.537 21.2538 29.1563 20.8432L28.2025 23.6938C28.1146 23.9565 28.1584 24.2453 28.3202 24.4703C28.4819 24.695 28.7421 24.8282 29.0191 24.8282C34.7143 24.8282 34.5311 24.8282 40.2614 24.8282C41.0323 24.8282 41.6594 25.4553 41.6594 26.2262C41.6593 26.9971 41.0322 27.6242 40.2613 27.6242Z"/>
</mask>
<path d="M40.2612 23.106H37.5599L38.1196 21.4332C38.2704 20.9821 38.0272 20.4942 37.5763 20.3433C37.1249 20.1919 36.6372 20.4357 36.4865 20.8866L35.7439 23.1059H30.2152C30.441 22.4312 32.387 16.6144 32.7558 15.512C34.2291 16.4608 35.9647 16.9761 37.8081 16.9362L37.4234 18.0862C37.2725 18.5373 37.5158 19.0252 37.9666 19.1761C38.418 19.3272 38.9056 19.0838 39.0565 18.6328L39.7119 16.6735C45.5851 15.1727 47.5705 8.32886 43.5329 3.86899C43.0906 3.38037 42.2861 3.55109 42.078 4.17357L40.0704 10.1747L37.104 10.7784L35.098 8.5114L37.2315 2.13427C37.3229 1.86114 37.2718 1.56058 37.0952 1.33303C36.9186 1.10572 36.6396 0.981842 36.3528 1.00216C29.4384 1.50145 26.4033 9.43915 31.3248 14.3613L29.7386 19.1024C17.9518 19.3868 19.4829 23.9983 11.976 24.9571C11.7638 23.9027 10.8306 23.1061 9.71459 23.1061H3.30714C2.03498 23.1061 1 24.1411 1 25.4133V40.6356C1 41.9078 2.03498 42.9428 3.30714 42.9428H9.71459C10.8897 42.9428 11.8605 42.059 12.0021 40.9215C15.953 41.1838 16.29 42.5174 21.7827 42.8837L21.4341 43.9254C18.4198 44.3487 15.896 46.3412 14.9563 49.1501C14.0756 51.7827 14.7406 54.7569 16.6916 56.9119C17.1328 57.3994 17.9379 57.231 18.1465 56.6074L20.1543 50.606L23.1204 50.0024L25.1263 52.2696L22.9928 58.6464C22.7992 59.2253 23.2549 59.8219 23.8714 59.7785C30.3583 59.3105 33.5829 52.2037 29.5237 47.1263L30.9375 42.9009H35.4509C37.1713 42.9009 38.571 41.5012 38.571 39.7806C38.571 39.2001 38.4115 38.656 38.1344 38.19C39.9644 37.5126 40.7304 35.3406 39.7379 33.6718C41.5679 32.9945 42.3339 30.8225 41.3414 29.1537C42.5311 28.7133 43.3814 27.5673 43.3814 26.2262C43.3814 24.5058 41.9816 23.106 40.2612 23.106ZM35.1425 2.9495L33.307 8.43632C33.2093 8.72804 33.2749 9.04973 33.4786 9.28026L36.1434 12.292C36.3473 12.5223 36.6587 12.6262 36.96 12.5652L40.9007 11.7633C41.2022 11.702 41.4481 11.4844 41.5456 11.1927L43.1775 6.31504C43.9888 7.79662 44.1663 9.49644 43.635 11.0844C41.8603 16.3887 34.0842 16.5787 31.3844 11.592C29.4896 8.09224 31.3072 4.01261 35.1425 2.9495ZM29.2953 53.9468C28.6589 55.8491 27.0711 57.2795 25.0818 57.831L26.9174 52.3443C27.0151 52.0525 26.9495 51.7308 26.7457 51.5003L24.081 48.4884C23.8729 48.2534 23.5591 48.155 23.2643 48.2151L19.3237 49.0169C19.0223 49.0783 18.7765 49.2958 18.6789 49.5875L17.047 54.4653C14.3253 49.4941 19.2352 44.0368 24.9112 45.9359C28.3969 47.1031 30.3857 50.687 29.2953 53.9468ZM23.2704 43.8643L23.5781 42.9446C23.5781 42.9446 24.2986 42.9008 29.1215 42.9008L28.1627 45.7666C26.7299 44.63 24.9969 43.9898 23.2704 43.8643ZM40.2613 27.6242C39.0319 27.6242 31.1566 27.6242 29.9161 27.6242C29.4405 27.6242 29.0549 28.0096 29.0549 28.4854C29.0549 28.9611 29.4403 29.3465 29.9161 29.3465H38.658C39.4288 29.3465 40.0559 29.9735 40.0559 30.7443C40.0559 31.5153 39.4288 32.1425 38.658 32.1425C35.3572 32.1425 33.2013 32.1425 29.9161 32.1425C29.4405 32.1425 29.0549 32.5279 29.0549 33.0037C29.0549 33.4793 29.4403 33.8648 29.9161 33.8648H37.0544C37.8252 33.8648 38.4524 34.4918 38.4524 35.2626C38.4524 36.0336 37.8253 36.6608 37.0544 36.6608C36.3179 36.6608 30.6473 36.6608 29.9161 36.6608C29.4405 36.6608 29.0549 37.0462 29.0549 37.522C29.0549 37.9975 29.4403 38.3831 29.9161 38.3831H35.451C36.2218 38.3831 36.8489 39.0101 36.8489 39.7809C36.8489 40.5517 36.2218 41.179 35.451 41.179C35.3951 41.179 24.9907 41.1773 24.9349 41.1817C24.8869 41.1853 20.069 41.544 16.0564 39.9542C15.9046 39.8946 14.1786 39.3258 12.0215 39.1971V30.435C12.0215 29.9594 11.636 29.5738 11.1603 29.5738C10.6847 29.5738 10.2992 29.9592 10.2992 30.435V40.636C10.2992 40.9585 10.0368 41.2208 9.71436 41.2208H3.30714C2.98465 41.2208 2.72232 40.9585 2.72232 40.636V25.413C2.72232 25.0905 2.98465 24.8282 3.30714 24.8282H9.71459C10.0371 24.8282 10.2994 25.0905 10.2994 25.413V27.7937C10.2994 28.2693 10.6849 28.6548 11.1606 28.6548C11.6362 28.6548 12.0217 28.2694 12.0217 27.7937V26.6887C20.1326 25.7665 18.537 21.2538 29.1563 20.8432L28.2025 23.6938C28.1146 23.9565 28.1584 24.2453 28.3202 24.4703C28.4819 24.695 28.7421 24.8282 29.0191 24.8282C34.7143 24.8282 34.5311 24.8282 40.2614 24.8282C41.0323 24.8282 41.6594 25.4553 41.6594 26.2262C41.6593 26.9971 41.0322 27.6242 40.2613 27.6242Z" fill="#41484E"/>
<path d="M40.2612 23.106H37.5599L38.1196 21.4332C38.2704 20.9821 38.0272 20.4942 37.5763 20.3433C37.1249 20.1919 36.6372 20.4357 36.4865 20.8866L35.7439 23.1059H30.2152C30.441 22.4312 32.387 16.6144 32.7558 15.512C34.2291 16.4608 35.9647 16.9761 37.8081 16.9362L37.4234 18.0862C37.2725 18.5373 37.5158 19.0252 37.9666 19.1761C38.418 19.3272 38.9056 19.0838 39.0565 18.6328L39.7119 16.6735C45.5851 15.1727 47.5705 8.32886 43.5329 3.86899C43.0906 3.38037 42.2861 3.55109 42.078 4.17357L40.0704 10.1747L37.104 10.7784L35.098 8.5114L37.2315 2.13427C37.3229 1.86114 37.2718 1.56058 37.0952 1.33303C36.9186 1.10572 36.6396 0.981842 36.3528 1.00216C29.4384 1.50145 26.4033 9.43915 31.3248 14.3613L29.7386 19.1024C17.9518 19.3868 19.4829 23.9983 11.976 24.9571C11.7638 23.9027 10.8306 23.1061 9.71459 23.1061H3.30714C2.03498 23.1061 1 24.1411 1 25.4133V40.6356C1 41.9078 2.03498 42.9428 3.30714 42.9428H9.71459C10.8897 42.9428 11.8605 42.059 12.0021 40.9215C15.953 41.1838 16.29 42.5174 21.7827 42.8837L21.4341 43.9254C18.4198 44.3487 15.896 46.3412 14.9563 49.1501C14.0756 51.7827 14.7406 54.7569 16.6916 56.9119C17.1328 57.3994 17.9379 57.231 18.1465 56.6074L20.1543 50.606L23.1204 50.0024L25.1263 52.2696L22.9928 58.6464C22.7992 59.2253 23.2549 59.8219 23.8714 59.7785C30.3583 59.3105 33.5829 52.2037 29.5237 47.1263L30.9375 42.9009H35.4509C37.1713 42.9009 38.571 41.5012 38.571 39.7806C38.571 39.2001 38.4115 38.656 38.1344 38.19C39.9644 37.5126 40.7304 35.3406 39.7379 33.6718C41.5679 32.9945 42.3339 30.8225 41.3414 29.1537C42.5311 28.7133 43.3814 27.5673 43.3814 26.2262C43.3814 24.5058 41.9816 23.106 40.2612 23.106ZM35.1425 2.9495L33.307 8.43632C33.2093 8.72804 33.2749 9.04973 33.4786 9.28026L36.1434 12.292C36.3473 12.5223 36.6587 12.6262 36.96 12.5652L40.9007 11.7633C41.2022 11.702 41.4481 11.4844 41.5456 11.1927L43.1775 6.31504C43.9888 7.79662 44.1663 9.49644 43.635 11.0844C41.8603 16.3887 34.0842 16.5787 31.3844 11.592C29.4896 8.09224 31.3072 4.01261 35.1425 2.9495ZM29.2953 53.9468C28.6589 55.8491 27.0711 57.2795 25.0818 57.831L26.9174 52.3443C27.0151 52.0525 26.9495 51.7308 26.7457 51.5003L24.081 48.4884C23.8729 48.2534 23.5591 48.155 23.2643 48.2151L19.3237 49.0169C19.0223 49.0783 18.7765 49.2958 18.6789 49.5875L17.047 54.4653C14.3253 49.4941 19.2352 44.0368 24.9112 45.9359C28.3969 47.1031 30.3857 50.687 29.2953 53.9468ZM23.2704 43.8643L23.5781 42.9446C23.5781 42.9446 24.2986 42.9008 29.1215 42.9008L28.1627 45.7666C26.7299 44.63 24.9969 43.9898 23.2704 43.8643ZM40.2613 27.6242C39.0319 27.6242 31.1566 27.6242 29.9161 27.6242C29.4405 27.6242 29.0549 28.0096 29.0549 28.4854C29.0549 28.9611 29.4403 29.3465 29.9161 29.3465H38.658C39.4288 29.3465 40.0559 29.9735 40.0559 30.7443C40.0559 31.5153 39.4288 32.1425 38.658 32.1425C35.3572 32.1425 33.2013 32.1425 29.9161 32.1425C29.4405 32.1425 29.0549 32.5279 29.0549 33.0037C29.0549 33.4793 29.4403 33.8648 29.9161 33.8648H37.0544C37.8252 33.8648 38.4524 34.4918 38.4524 35.2626C38.4524 36.0336 37.8253 36.6608 37.0544 36.6608C36.3179 36.6608 30.6473 36.6608 29.9161 36.6608C29.4405 36.6608 29.0549 37.0462 29.0549 37.522C29.0549 37.9975 29.4403 38.3831 29.9161 38.3831H35.451C36.2218 38.3831 36.8489 39.0101 36.8489 39.7809C36.8489 40.5517 36.2218 41.179 35.451 41.179C35.3951 41.179 24.9907 41.1773 24.9349 41.1817C24.8869 41.1853 20.069 41.544 16.0564 39.9542C15.9046 39.8946 14.1786 39.3258 12.0215 39.1971V30.435C12.0215 29.9594 11.636 29.5738 11.1603 29.5738C10.6847 29.5738 10.2992 29.9592 10.2992 30.435V40.636C10.2992 40.9585 10.0368 41.2208 9.71436 41.2208H3.30714C2.98465 41.2208 2.72232 40.9585 2.72232 40.636V25.413C2.72232 25.0905 2.98465 24.8282 3.30714 24.8282H9.71459C10.0371 24.8282 10.2994 25.0905 10.2994 25.413V27.7937C10.2994 28.2693 10.6849 28.6548 11.1606 28.6548C11.6362 28.6548 12.0217 28.2694 12.0217 27.7937V26.6887C20.1326 25.7665 18.537 21.2538 29.1563 20.8432L28.2025 23.6938C28.1146 23.9565 28.1584 24.2453 28.3202 24.4703C28.4819 24.695 28.7421 24.8282 29.0191 24.8282C34.7143 24.8282 34.5311 24.8282 40.2614 24.8282C41.0323 24.8282 41.6594 25.4553 41.6594 26.2262C41.6593 26.9971 41.0322 27.6242 40.2613 27.6242Z" stroke="#41484E" stroke-width="0.688837" mask="url(#path-1-outside-1)"/>
</svg>
