<svg width="128" height="58" viewBox="0 0 128 58" fill="none" xmlns="http://www.w3.org/2000/svg">
<path d="M19.381 5.93253C19.381 7.83101 20.093 8.78036 20.8049 9.7296C21.0422 10.2043 21.0422 10.9162 20.5676 11.1535C20.3303 11.3908 20.093 11.3908 19.6184 11.3908L8.70175 10.4416C8.46446 10.4416 7.98979 10.4416 7.75251 10.6788C7.51523 10.9161 7.27783 11.1535 7.27783 11.6281L7.27783 22.3074C7.27783 23.2567 7.75251 23.9688 8.46446 24.4433C9.17642 24.918 10.1258 24.918 10.8376 24.4433C11.5496 23.9686 12.0243 23.7314 13.2108 23.7314C15.1093 23.7314 16.7706 25.8672 16.7706 28.4778C16.7706 31.0883 15.1093 33.2242 13.2108 33.2242C12.2615 33.2242 11.5495 32.9869 10.8376 32.5122C10.1257 32.0376 9.17631 32.0376 8.46446 32.5122C7.75262 32.9869 7.27783 33.6989 7.27783 34.6481L7.27783 45.3275C7.27783 45.5648 7.51511 46.0394 7.75251 46.2767C7.98979 46.514 8.22718 46.514 8.70175 46.514L19.6184 45.5648C20.0931 45.5648 20.3303 45.802 20.5676 45.802C21.0423 46.2767 21.2796 46.7513 20.8049 47.4633C20.093 48.4126 19.6183 49.3618 19.6183 51.2604C19.6183 54.5829 22.7034 57.1934 26.7379 57.1934C30.7723 57.1934 33.8574 54.5828 33.8574 51.2604C33.8574 49.3619 33.1455 48.4126 32.4335 47.4633C32.1962 46.9887 32.1962 46.2767 32.6708 46.0394C32.9081 45.8021 33.1455 45.8021 33.62 45.8021L44.5367 46.7514C44.774 46.7514 45.2486 46.7514 45.4859 46.5141C45.7232 46.2768 45.9606 46.0394 45.9606 45.5649V34.8855C45.9606 33.9363 45.4859 33.2242 44.774 32.7496C44.062 32.275 43.1127 32.275 42.4008 32.7496C41.6889 33.2243 41.2142 33.4616 40.0277 33.4616C38.1292 33.4616 36.4679 31.3257 36.4679 28.7152C36.4679 26.1046 38.1292 23.9688 40.0277 23.9688C40.9769 23.9688 41.689 24.206 42.4008 24.6807C43.1128 25.1554 44.0621 25.1554 44.774 24.6807C45.4858 24.206 45.9606 23.4941 45.9606 22.5448V11.8655C45.9606 11.6282 45.7233 11.1535 45.4859 10.9162C45.2486 10.6789 45.0112 10.6789 44.5367 10.6789L33.62 11.6282C33.1454 11.6282 32.9081 11.3909 32.6708 11.3909C32.1961 10.9162 31.9588 10.4417 32.4335 9.7296C33.1455 8.78036 33.6201 7.83112 33.6201 5.93253C33.6201 2.61002 30.535 -0.000411987 26.5006 -0.000411987C22.4661 -0.000522614 19.381 2.61002 19.381 5.93253Z" fill="#D5AC63"/>
<rect x="11.1304" y="39.3838" width="24.8294" height="34.6756" transform="rotate(-90 11.1304 39.3838)" fill="#D5AC63"/>
<path d="M42.8538 28.2539V22.6388L43.742 13.2155C43.742 13.0106 43.742 12.6009 43.52 12.3961C43.298 12.1912 43.0759 11.9863 42.6318 11.9863H32.64C31.7519 11.9863 31.0856 12.3961 30.6416 13.0106C30.1975 13.6252 30.1975 14.4447 30.6416 15.0592C31.0858 15.6737 31.3078 16.0835 31.3078 17.1077C31.3078 18.7465 29.3094 20.1805 26.8669 20.1805C24.4244 20.1805 22.4261 18.7465 22.4261 17.1077C22.4261 16.2883 22.6481 15.6736 23.0922 15.0592C23.5363 14.4446 23.5363 13.6251 23.0922 13.0106C22.6481 12.3962 21.9819 11.9863 21.0938 11.9863H11.102C10.88 11.9863 10.4359 12.1912 10.2138 12.3961C9.99184 12.6009 9.99184 12.8058 9.99184 13.2155L10.88 22.6388C10.88 23.0486 10.658 23.2534 10.658 23.4582C10.2138 23.8679 9.76983 24.0728 9.10361 23.663C8.21548 23.0485 7.32735 22.6387 5.55099 22.6387C2.44238 22.6387 0 25.3018 0 28.7844C0 32.267 2.44248 34.9301 5.55099 34.9301C7.32724 34.9301 8.21548 34.3155 9.10361 33.7009C9.54772 33.4961 10.2138 33.4961 10.4359 33.9058C10.6579 34.1106 10.6579 34.3155 10.6579 34.7252L9.76973 44.1485C9.76973 44.3533 9.76973 44.7631 9.99174 44.9679C10.2137 45.1727 10.4359 45.3776 10.8799 45.3776H20.8717C21.7598 45.3776 22.4261 44.9679 22.8701 44.3533C23.3142 43.7387 23.3142 42.9193 22.8701 42.3048C22.426 41.6902 22.2039 41.2805 22.2039 40.2563C22.2039 38.6175 24.2023 37.1834 26.6448 37.1834C29.0873 37.1834 31.0856 38.6175 31.0856 40.2563C31.0856 41.0757 30.8636 41.6903 30.4195 42.3048C29.9754 42.9194 29.9754 43.7388 30.4195 44.3533C30.8636 44.9678 31.5298 45.3776 32.4179 45.3776H42.4097C42.6317 45.3776 43.0759 45.1728 43.2979 44.9679C43.5199 44.7631 43.5199 44.5581 43.5199 44.1485L42.6317 34.7252C42.8537 33.9058 42.8538 28.2539 42.8538 28.2539Z" fill="#D5AC63"/>
<path d="M34.3613 35.2529H19.4791C19.2054 35.2529 18.9834 35.4749 18.9829 35.7486L18.981 37.1956C18.9805 37.7368 19.1908 38.2456 19.5731 38.6284C19.9559 39.0118 20.4642 39.2225 21.0055 39.2225H32.8329C33.9494 39.2225 34.8575 38.3144 34.8575 37.198V35.7491C34.8575 35.4749 34.6356 35.2529 34.3613 35.2529Z" fill="white"/>
<path d="M32.3766 19.3745C32.0728 19.3745 31.7607 19.405 31.4302 19.4665C30.2949 18.1426 28.6677 17.3896 26.9184 17.3896C23.635 17.3896 20.964 20.0606 20.964 23.3441C20.964 23.6178 20.7416 23.8403 20.4678 23.8403C20.194 23.8403 19.9715 23.6179 19.9715 23.3441C19.9715 22.2698 20.2187 21.2303 20.7062 20.2549C20.7929 20.0815 20.7706 19.8736 20.6495 19.7224C20.5283 19.5722 20.3301 19.5053 20.1421 19.5513C17.7043 20.1595 16.002 22.3313 16.002 24.8327C16.002 26.895 17.1649 28.7698 18.9908 29.6968L18.9854 33.7638C18.9854 33.8951 19.0373 34.0216 19.1303 34.1151C19.2239 34.2081 19.3499 34.2605 19.4817 34.2605H34.3614C34.6357 34.2605 34.8576 34.0385 34.8576 33.7642V29.6895C36.6767 28.7601 37.8348 26.8882 37.8348 24.8326C37.8348 21.823 35.3863 19.3745 32.3766 19.3745ZM23.2637 31.1709C23.1712 31.2465 23.0598 31.2833 22.9493 31.2833C22.8059 31.2833 22.6634 31.2213 22.565 31.1021C22.4012 30.9019 20.964 29.1129 20.964 27.8099C20.964 27.5356 21.1859 27.3137 21.4602 27.3137C21.7345 27.3137 21.9564 27.5356 21.9564 27.8099C21.9564 28.528 22.8005 29.8238 23.3326 30.4721C23.506 30.6844 23.4755 30.9969 23.2637 31.1709ZM27.4146 30.7871C27.4146 31.0614 27.1926 31.2833 26.9184 31.2833C26.6441 31.2833 26.4222 31.0614 26.4222 30.7871V27.8099C26.4222 27.5356 26.6441 27.3137 26.9184 27.3137C27.1927 27.3137 27.4146 27.5356 27.4146 27.8099V30.7871H27.4146ZM31.2718 31.1021C31.1734 31.2213 31.0314 31.2833 30.888 31.2833C30.777 31.2833 30.6656 31.2465 30.5735 31.1709C30.3618 30.9969 30.3307 30.6844 30.5042 30.4726C31.0363 29.8228 31.8804 28.5256 31.8804 27.8099C31.8804 27.5356 32.1023 27.3137 32.3766 27.3137C32.6509 27.3137 32.8728 27.5356 32.8728 27.8099C32.8728 29.1129 31.4356 30.9019 31.2718 31.1021Z" fill="white"/>
<path d="M74.2562 21.2454C74.2562 23.3719 73.8074 25.2546 72.91 26.8934C72.0223 28.5224 70.7493 29.7808 69.091 30.6685C67.4327 31.5562 65.5208 32 63.3552 32H54.4735V11.0176H63.165C70.5591 11.0176 74.2562 14.4268 74.2562 21.2454ZM67.54 21.3039C67.54 20.2797 67.3303 19.3579 66.9108 18.5385C66.5011 17.7191 65.911 17.085 65.1404 16.6363C64.3697 16.1876 63.4625 15.9632 62.4188 15.9632H60.7946V27.0543H62.5651C64.0771 27.0543 65.2818 26.5373 66.1792 25.5033C67.0864 24.4596 67.54 23.0598 67.54 21.3039ZM77.2118 32V11.0176H83.5329V32H77.2118ZM98.2674 15.9632V32H91.9171V15.9632H86.0496V11.0176H104.208V15.9632H98.2674ZM117.348 15.9632V32H110.997V15.9632H105.13V11.0176H123.288V15.9632H117.348Z" fill="#41484E"/>
<path d="M56.0884 36.6283V47.9668H54.6081V36.6283H56.0884ZM67.5261 47.9668H66.0457L60.0918 38.9383V47.9668H58.6114V36.612H60.0918L66.0457 45.6243V36.612H67.5261V47.9668ZM77.0283 36.6283V37.8321H73.9375V47.9668H72.4572V37.8321H69.3501V36.6283H77.0283ZM80.3309 37.8321V41.6224H84.4629V42.8425H80.3309V46.7467H84.9509V47.9668H78.8506V36.612H84.9509V37.8321H80.3309ZM93.1611 47.9668L90.4607 43.3305H88.6712V47.9668H87.1909V36.6283H90.8511C91.7078 36.6283 92.429 36.7747 93.0147 37.0675C93.6111 37.3603 94.0558 37.7562 94.3486 38.2551C94.6414 38.7539 94.7878 39.3233 94.7878 39.9632C94.7878 40.744 94.5601 41.4327 94.1046 42.0291C93.6599 42.6256 92.9875 43.0215 92.0874 43.2167L94.9342 47.9668H93.1611ZM88.6712 42.143H90.8511C91.6536 42.143 92.2555 41.9478 92.6568 41.5574C93.058 41.1561 93.2587 40.6247 93.2587 39.9632C93.2587 39.2908 93.058 38.7702 92.6568 38.4015C92.2664 38.0327 91.6645 37.8484 90.8511 37.8484H88.6712V42.143ZM98.5684 36.6283V47.9668H97.088V36.6283H98.5684ZM106.232 48.0807C105.18 48.0807 104.22 47.8367 103.353 47.3486C102.485 46.8498 101.796 46.1611 101.287 45.2826C100.788 44.3934 100.538 43.3956 100.538 42.2894C100.538 41.1832 100.788 40.1909 101.287 39.3125C101.796 38.4232 102.485 37.7345 103.353 37.2465C104.22 36.7476 105.18 36.4982 106.232 36.4982C107.295 36.4982 108.26 36.7476 109.128 37.2465C109.995 37.7345 110.678 38.4177 111.177 39.2962C111.676 40.1746 111.926 41.1724 111.926 42.2894C111.926 43.4065 111.676 44.4042 111.177 45.2826C110.678 46.1611 109.995 46.8498 109.128 47.3486C108.26 47.8367 107.295 48.0807 106.232 48.0807ZM106.232 46.7955C107.024 46.7955 107.734 46.6112 108.363 46.2424C109.003 45.8737 109.502 45.3477 109.86 44.6645C110.228 43.9812 110.413 43.1896 110.413 42.2894C110.413 41.3784 110.228 40.5867 109.86 39.9144C109.502 39.2311 109.008 38.7051 108.379 38.3364C107.75 37.9677 107.034 37.7833 106.232 37.7833C105.429 37.7833 104.714 37.9677 104.085 38.3364C103.456 38.7051 102.957 39.2311 102.588 39.9144C102.23 40.5867 102.051 41.3784 102.051 42.2894C102.051 43.1896 102.23 43.9812 102.588 44.6645C102.957 45.3477 103.456 45.8737 104.085 46.2424C104.724 46.6112 105.44 46.7955 106.232 46.7955ZM119.85 47.9668L117.15 43.3305H115.36V47.9668H113.88V36.6283H117.54C118.397 36.6283 119.118 36.7747 119.704 37.0675C120.3 37.3603 120.745 37.7562 121.038 38.2551C121.33 38.7539 121.477 39.3233 121.477 39.9632C121.477 40.744 121.249 41.4327 120.794 42.0291C120.349 42.6256 119.677 43.0215 118.776 43.2167L121.623 47.9668H119.85ZM115.36 42.143H117.54C118.343 42.143 118.944 41.9478 119.346 41.5574C119.747 41.1561 119.948 40.6247 119.948 39.9632C119.948 39.2908 119.747 38.7702 119.346 38.4015C118.955 38.0327 118.353 37.8484 117.54 37.8484H115.36V42.143Z" fill="#41484E"/>
</svg>
