<svg width="15" height="10" viewBox="0 0 15 10" fill="none" xmlns="http://www.w3.org/2000/svg">
<path d="M14.0497 0.357309C13.9897 0.249613 13.8997 0.159413 13.7894 0.0964439C13.6791 0.0334745 13.5526 0.000126851 13.4237 0H0.705076C0.576367 0.000501572 0.450237 0.0340954 0.340252 0.0971686C0.230266 0.160242 0.140586 0.250408 0.080855 0.357971C0.0211243 0.465533 -0.00639685 0.586423 0.00125122 0.707639C0.0088993 0.828854 0.0514272 0.94581 0.124261 1.04593L6.48355 9.712C6.54837 9.80082 6.63511 9.87344 6.73629 9.92361C6.83747 9.97379 6.95006 10 7.06436 10C7.17867 10 7.29126 9.97379 7.39244 9.92361C7.49362 9.87344 7.58036 9.80082 7.64518 9.712L14.0045 1.04593C14.078 0.946015 14.1211 0.828991 14.1291 0.707581C14.1371 0.586171 14.1096 0.465022 14.0497 0.357309ZM7.06436 8.16144L2.05325 1.33324H12.0755L7.06436 8.16144Z" fill="#D5AC63"/>
</svg>
