<svg width="96" height="96" viewBox="0 0 96 96" fill="none" xmlns="http://www.w3.org/2000/svg">
<g clip-path="url(#clip0)">
<path d="M88.2612 37.7021C89.994 36.013 90.6058 33.534 89.8582 31.2325C89.1103 28.9311 87.1582 27.2853 84.7635 26.9375L63.8238 23.8948C63.4128 23.8351 63.0575 23.577 62.8735 23.2043L53.5091 4.22996C52.4383 2.05992 50.2697 0.711914 47.8498 0.711914C45.4298 0.711914 43.2613 2.05992 42.1905 4.22996L32.826 23.2045C32.6419 23.577 32.2868 23.8351 31.8755 23.8949L10.9362 26.9375C8.5415 27.2853 6.58958 28.9311 5.84156 31.2325C5.09354 33.534 5.70549 36.013 7.43854 37.7021L22.5905 52.4717C22.8879 52.7618 23.0238 53.1795 22.9535 53.589L19.3766 74.4439C18.9676 76.8291 19.9295 79.194 21.8872 80.6164C23.8449 82.0392 26.3921 82.223 28.5338 81.0972L47.2625 71.2509C47.6303 71.0574 48.0694 71.0574 48.4374 71.2509L67.1663 81.0972C68.0979 81.5869 69.1059 81.8289 70.1091 81.8288C71.4118 81.8288 72.7064 81.4205 73.8124 80.6163C75.7701 79.1937 76.7321 76.8285 76.323 74.4437L72.746 53.5888C72.6759 53.1793 72.8116 52.7616 73.109 52.4715L88.2612 37.7021ZM67.7702 54.4427L71.3472 75.2979C71.4668 75.9958 71.036 76.3937 70.8451 76.5322C70.6541 76.6706 70.1423 76.9578 69.5158 76.6281L50.7869 66.7818C49.8675 66.2986 48.8589 66.0568 47.8501 66.0568C46.8414 66.0568 45.8326 66.2986 44.9134 66.7816L26.1847 76.6278C25.5578 76.9573 25.0462 76.6704 24.8553 76.5319C24.6645 76.3934 24.2335 75.9954 24.3533 75.2975L27.9302 54.4427C28.2814 52.395 27.6031 50.3069 26.1151 48.8566L10.9631 34.087C10.456 33.5925 10.5708 33.0173 10.6439 32.7931C10.7166 32.5686 10.962 32.0357 11.6627 31.934L32.6019 28.8913C34.6577 28.5926 36.4343 27.3022 37.3539 25.4388L46.7184 6.46431C47.0318 5.82937 47.6143 5.76077 47.8503 5.76077C48.086 5.76077 48.6684 5.82918 48.9821 6.46431V6.46449L58.3465 25.439C59.266 27.3023 61.0424 28.5928 63.0982 28.8915L84.0377 31.9342C84.7385 32.0359 84.9837 32.5688 85.0566 32.7932C85.1295 33.0177 85.2444 33.593 84.7372 34.0872L69.5852 48.8568C68.0973 50.3069 67.419 52.395 67.7702 54.4427Z" fill="#D5AC63"/>
<path d="M77.341 4.22931C76.2128 3.40989 74.6343 3.65997 73.8149 4.7878L71.1351 8.47594C70.3157 9.60376 70.5656 11.1826 71.6936 12.002C72.142 12.3274 72.6611 12.4843 73.1755 12.4843C73.9562 12.4843 74.7259 12.1233 75.2197 11.4437L77.8995 7.75558C78.7189 6.62757 78.469 5.04873 77.341 4.22931Z" fill="#D5AC63"/>
<path d="M24.5527 8.46102L21.873 4.77288C21.0537 3.64543 19.4751 3.39534 18.3469 4.21439C17.2191 5.03381 16.969 6.61265 17.7884 7.74048L20.4681 11.4286C20.9621 12.1088 21.7319 12.4695 22.5128 12.4695C23.0273 12.4695 23.5466 12.3127 23.9944 11.9871C25.1222 11.1679 25.3723 9.58903 24.5527 8.46102Z" fill="#D5AC63"/>
<path d="M9.26181 57.3494C8.83097 56.0237 7.4069 55.2979 6.08076 55.7287L1.74497 57.1377C0.418831 57.5685 -0.306573 58.9929 0.124258 60.3187C0.470793 61.3858 1.46049 62.0639 2.52458 62.0639C2.78308 62.0639 3.04606 62.0237 3.30531 61.9394L7.6411 60.5305C8.96705 60.0996 9.69264 58.6756 9.26181 57.3494Z" fill="#D5AC63"/>
<path d="M47.8501 85.3789C46.4559 85.3789 45.3257 86.5092 45.3257 87.9033V92.4625C45.3257 93.8567 46.4559 94.9869 47.8501 94.9869C49.2443 94.9869 50.3745 93.8567 50.3745 92.4625V87.9033C50.3745 86.509 49.2445 85.3789 47.8501 85.3789Z" fill="#D5AC63"/>
<path d="M93.9536 57.1414L89.6178 55.7325C88.2922 55.302 86.8676 56.0273 86.4368 57.3534C86.0059 58.6795 86.7313 60.1036 88.0575 60.5344L92.3933 61.9434C92.6525 62.0275 92.9153 62.0675 93.1738 62.0675C94.2381 62.0675 95.2278 61.3892 95.5743 60.3223C96.0051 58.9963 95.2795 57.5723 93.9536 57.1414Z" fill="#D5AC63"/>
</g>
<defs>
<clipPath id="clip0">
<rect width="95.6987" height="95.6987" fill="white"/>
</clipPath>
</defs>
</svg>
