<svg width="55" height="55" viewBox="0 0 55 55" fill="none" xmlns="http://www.w3.org/2000/svg">
<g clip-path="url(#clip0)">
<mask id="path-2-outside-1" maskUnits="userSpaceOnUse" x="-1.00586" y="-0.948242" width="57" height="57" fill="black">
<rect fill="white" x="-1.00586" y="-0.948242" width="57" height="57"/>
<path d="M54.8999 25.4634C54.9317 25.3774 54.9501 25.2873 54.9541 25.1954C54.9541 25.0987 54.9385 25.0023 54.9084 24.9105L54.8377 24.7102C54.0885 17.4697 50.4942 10.8233 44.8448 6.23346C44.4411 5.90459 44.019 5.60753 43.5969 5.30286C43.5759 5.28538 43.5647 5.26074 43.5418 5.24416C43.519 5.22758 43.5006 5.22938 43.4813 5.21728C38.8104 1.86899 33.2107 0.0637914 27.4635 0.0530382C27.2269 0.0530382 26.989 0.0530382 26.812 0.0714083C23.7465 0.130999 20.7141 0.714362 17.8452 1.79641C15.358 -0.143656 11.982 -0.495377 9.14805 0.890446C6.31412 2.27627 4.51878 5.15724 4.52326 8.31152C4.57837 9.36086 4.82211 10.3914 5.24373 11.3533C4.3073 12.6334 3.48289 13.9915 2.77989 15.4131C2.766 15.4351 2.75794 15.4588 2.74584 15.4817C-3.75987 28.9335 1.65349 45.1194 14.9431 51.9504C28.2324 58.7818 44.545 53.7641 51.6977 40.6447C53.6566 37.0357 54.77 33.0287 54.9532 28.9268C54.9819 28.4841 54.9918 28.033 54.9918 27.5813C54.9918 26.8703 54.955 26.1655 54.8999 25.4634ZM52.2336 20.7544C52.1171 20.6509 52.0095 20.5312 51.8877 20.4358C50.6887 19.5254 49.3298 18.8466 47.8812 18.4348C46.5621 18.1037 45.1835 18.0893 43.8577 18.3927C42.73 18.6481 41.5605 18.6539 40.4301 18.4097C38.2364 17.9307 36.5029 17.553 35.5835 16.0848C34.2667 13.974 34.8841 11.0074 36.2735 9.96349C36.7314 9.64761 37.2964 9.52709 37.8435 9.62835C38.8167 9.7081 39.7948 9.54322 40.6882 9.14938C41.639 8.70401 42.4835 8.06106 43.1659 7.26263C43.3393 7.3966 43.5226 7.51713 43.6924 7.65557C47.8333 11.0267 50.8186 15.6058 52.2336 20.7544ZM12.7817 1.88826C16.3272 1.89408 19.1996 4.76654 19.205 8.31152C19.205 11.0563 15.0825 17.3402 12.7817 20.5259C10.6002 17.5777 8.70448 14.4279 7.12106 11.1195C6.68959 10.2408 6.43062 9.28783 6.35848 8.31152C6.36251 4.76564 9.23587 1.89229 12.7817 1.88826ZM1.77043 27.5813C1.77402 25.8716 1.94652 24.1658 2.28524 22.4897C2.38337 23.7653 2.54959 24.9002 2.69835 25.8845C3.26693 29.6468 3.80414 33.1936 6.57713 36.4371C7.73669 37.8036 9.67854 40.0882 12.6809 40.4261C15.6833 40.7639 19.4429 39.0367 20.529 38.499L20.9457 38.2889C21.5228 37.9255 22.1823 37.7145 22.8629 37.675C24.0238 37.7803 25.0991 38.3296 25.8653 39.2083C27.4312 40.9418 27.8287 43.8362 26.7157 45.4021C26.3591 45.8672 25.8666 46.2095 25.3061 46.3816C24.3469 46.7024 23.5314 47.3525 23.0049 48.2168C22.2294 49.621 22.0851 51.2882 22.6084 52.8048C10.5236 50.4633 1.78925 39.8911 1.77043 27.5813ZM27.4635 53.2744C26.5768 53.2744 25.691 53.2287 24.8088 53.1377C24.7335 53.0414 24.6636 52.941 24.5996 52.8366C23.9794 51.6896 23.9727 50.3083 24.5821 49.1554C24.9132 48.6294 25.4262 48.2437 26.023 48.0716C26.8981 47.7701 27.6615 47.2096 28.2113 46.4649C29.8073 44.2206 29.3556 40.3324 27.2296 37.9806C26.1238 36.7162 24.5592 35.9455 22.8831 35.8398H22.8423C21.8758 35.8689 20.934 36.1494 20.1087 36.6539L19.7171 36.852C17.7121 37.8404 14.8594 38.8176 12.8848 38.5953C10.606 38.3404 9.02349 36.4756 7.97371 35.2408C5.53989 32.3961 5.06361 29.2485 4.5134 25.6059C3.92287 22.4897 3.89957 19.2928 4.44351 16.1681C4.93502 15.173 5.49016 14.2106 6.10623 13.2867C6.13669 13.3476 6.1703 13.4099 6.19808 13.4704C6.25677 13.5869 6.31726 13.7025 6.38133 13.819C6.47318 13.9924 6.56503 14.1658 6.65688 14.3405C6.72006 14.4579 6.78413 14.5753 6.84954 14.6936C6.94677 14.8679 7.0449 15.0422 7.14391 15.2164C7.21023 15.332 7.27609 15.4481 7.3433 15.5637C7.44545 15.738 7.54761 15.9114 7.65066 16.0848C7.71832 16.1986 7.78552 16.3115 7.85408 16.4244C7.9625 16.6076 8.07183 16.7792 8.18115 16.9562C8.24343 17.0566 8.30482 17.1583 8.36441 17.2573C8.50017 17.4751 8.63503 17.6861 8.76989 17.8998C8.80574 17.9549 8.84158 18.0127 8.87653 18.0669C9.04455 18.3273 9.21122 18.5813 9.37476 18.8291C9.43704 18.9209 9.49753 19.0128 9.55846 19.1046C9.65928 19.2561 9.76009 19.4075 9.85821 19.5522L10.076 19.8708C10.1548 19.9873 10.2346 20.1038 10.3116 20.2149L10.5316 20.5312C10.5997 20.6298 10.6678 20.7261 10.7328 20.8184C10.7978 20.9112 10.8713 21.016 10.9394 21.1106C11.007 21.2051 11.0532 21.271 11.1074 21.3471L11.2906 21.6003L11.4403 21.8077L11.5863 22.0089L11.7055 22.1702L11.8175 22.3225L11.8843 22.4144C11.9663 22.5255 12.0286 22.6088 12.046 22.6317C12.219 22.8629 12.491 22.9991 12.78 22.9991C13.0689 22.9991 13.3409 22.8629 13.5139 22.6317C14.2841 21.6106 21.0402 12.5528 21.0402 8.31152C21.0402 8.04359 21.0237 7.77744 20.9981 7.51309C20.99 7.43155 20.9771 7.35 20.9668 7.26846C20.943 7.08476 20.9148 6.90106 20.8753 6.7178C20.8579 6.62595 20.8386 6.53993 20.8184 6.45166C20.7759 6.26796 20.7266 6.08471 20.6706 5.90101C20.6477 5.82753 20.6285 5.75315 20.6043 5.68101C20.5218 5.43503 20.4291 5.19174 20.3238 4.95517C20.3036 4.90992 20.2794 4.86332 20.2584 4.8221C20.1665 4.63123 20.0751 4.44215 19.9694 4.25755C19.9237 4.17511 19.8731 4.09536 19.8238 4.01426C19.7355 3.86954 19.6437 3.72706 19.5482 3.58682C19.4913 3.50527 19.4335 3.42373 19.3739 3.34353C19.3426 3.3032 19.3161 3.26019 19.2821 3.22076C21.1912 2.57781 23.1712 2.16739 25.1789 1.99848C23.7483 4.69888 23.2809 7.19677 23.815 9.4312C24.2133 10.9277 24.9692 12.3055 26.0176 13.4457C26.881 14.5148 27.502 15.2854 27.4635 16.5436C27.3846 19.2045 24.3796 21.4197 23.2424 22.2567C21.7508 23.3307 20.0836 24.1358 18.3152 24.6367C16.6484 25.1811 15.2106 25.6507 14.6609 27.2914C14.1174 29.4582 15.0099 31.7316 16.8828 32.9494C18.0051 33.5556 19.3278 33.6726 20.5393 33.2725C21.8664 32.9642 23.2384 32.8983 24.5888 33.0789C26.3322 33.3258 27.8354 33.5377 28.5482 34.536C28.9712 35.1323 28.9492 35.7488 28.8668 36.8797C28.6786 38.4806 28.8413 40.1035 29.3426 41.6353C29.7611 42.8908 30.3933 44.7865 31.9122 45.0051C32.0108 45.0208 32.1107 45.0289 32.2102 45.0289C33.285 45.0289 33.9428 44.0799 34.6346 43.0817C34.9401 42.6403 35.2771 42.164 35.6808 41.686C37.5693 44.7372 39.4879 47.2835 39.577 47.4045C39.7504 47.6357 40.0224 47.7714 40.3109 47.7714C40.5999 47.7714 40.8719 47.6357 41.0453 47.4045C43.036 44.7386 44.8506 41.9445 46.4766 39.0416C47.6039 39.3682 48.6774 39.8575 49.6631 40.4942C45.0719 48.4085 36.6132 53.2784 27.4635 53.2744ZM44.5907 28.3036C45.9541 29.5196 46.7337 31.2598 46.7333 33.087C46.7333 33.747 46.4654 35.0553 45.1929 37.5402C43.7403 40.2325 42.1094 42.824 40.31 45.2977C39.4466 44.0947 37.9609 41.9593 36.6315 39.715C35.8904 38.4846 35.2287 37.209 34.6493 35.8949C34.2179 35.0163 33.9589 34.0633 33.8868 33.087C33.8908 29.5411 36.7641 26.6677 40.31 26.6637C40.5085 26.6637 40.7052 26.6727 40.901 26.6906C42.2729 26.8147 43.5678 27.381 44.5907 28.3036ZM53.1243 28.8323C52.9661 32.3226 52.0866 35.7421 50.5404 38.8754C49.535 38.2396 48.4516 37.7351 47.318 37.3739C48.0268 36.0472 48.4529 34.5871 48.5685 33.087C48.5609 29.9381 46.7705 27.0652 43.9464 25.6708L43.8886 25.6453C43.6834 25.5463 43.4751 25.4535 43.2622 25.3702C43.1162 25.3133 42.9647 25.2689 42.8151 25.2214C42.7232 25.1937 42.6408 25.1592 42.5516 25.1296C42.3151 25.0624 42.0745 25.0077 41.8325 24.9625H41.8204C41.6739 24.9351 41.5251 24.9203 41.3764 24.9011C39.017 24.5744 36.632 25.29 34.842 26.8613C33.0516 28.4331 32.0332 30.7051 32.0515 33.087C32.1228 34.3102 32.4315 35.5082 32.9602 36.6136C33.4746 37.7848 34.0548 38.926 34.6982 40.0313C34.1247 40.659 33.5996 41.3289 33.1269 42.0355C32.8746 42.4678 32.556 42.8576 32.1828 43.191C31.9991 43.1632 31.659 42.7716 31.0815 41.0547C30.6603 39.7513 30.5282 38.3713 30.6953 37.0119C30.9337 35.791 30.6993 34.5252 30.0402 33.4705C28.8686 31.832 26.8232 31.5434 24.833 31.2612C23.2859 31.0497 21.7132 31.1205 20.1916 31.4695C19.0177 31.694 18.4729 31.7778 17.8497 31.3893C16.7112 30.6088 16.1421 29.2284 16.3998 27.8721C16.6448 27.1382 17.3792 26.8729 18.8775 26.381C20.8341 25.8196 22.6783 24.9235 24.3289 23.7321C25.6659 22.7513 29.1925 20.1486 29.2987 16.5978C29.3574 14.655 28.3856 13.4565 27.446 12.2978C26.5777 11.3677 25.9459 10.2426 25.6036 9.0172C25.1162 6.97274 25.7201 4.57522 27.3582 1.88826H27.4635C32.5153 1.89543 37.4537 3.38833 41.6636 6.18104C41.1775 6.72273 40.5892 7.16272 39.9319 7.47591C39.2921 7.7528 38.5926 7.86213 37.8986 7.79402C36.9335 7.67484 35.9594 7.9253 35.1713 8.49522C33.0906 10.0616 32.1582 14.056 34.0283 17.0557C35.3595 19.1817 37.6334 19.6772 40.1165 20.2185C41.453 20.5008 42.8344 20.4949 44.1686 20.201C45.2395 19.9456 46.356 19.9488 47.4251 20.2113C48.6281 20.5581 49.7572 21.1236 50.7563 21.8785C51.794 22.7392 52.5808 23.8629 53.0347 25.1323C53.11 25.9428 53.1566 26.7556 53.1566 27.5813C53.1566 27.9917 53.1485 28.4071 53.1207 28.8323H53.1243Z"/>
</mask>
<path d="M54.8999 25.4634C54.9317 25.3774 54.9501 25.2873 54.9541 25.1954C54.9541 25.0987 54.9385 25.0023 54.9084 24.9105L54.8377 24.7102C54.0885 17.4697 50.4942 10.8233 44.8448 6.23346C44.4411 5.90459 44.019 5.60753 43.5969 5.30286C43.5759 5.28538 43.5647 5.26074 43.5418 5.24416C43.519 5.22758 43.5006 5.22938 43.4813 5.21728C38.8104 1.86899 33.2107 0.0637914 27.4635 0.0530382C27.2269 0.0530382 26.989 0.0530382 26.812 0.0714083C23.7465 0.130999 20.7141 0.714362 17.8452 1.79641C15.358 -0.143656 11.982 -0.495377 9.14805 0.890446C6.31412 2.27627 4.51878 5.15724 4.52326 8.31152C4.57837 9.36086 4.82211 10.3914 5.24373 11.3533C4.3073 12.6334 3.48289 13.9915 2.77989 15.4131C2.766 15.4351 2.75794 15.4588 2.74584 15.4817C-3.75987 28.9335 1.65349 45.1194 14.9431 51.9504C28.2324 58.7818 44.545 53.7641 51.6977 40.6447C53.6566 37.0357 54.77 33.0287 54.9532 28.9268C54.9819 28.4841 54.9918 28.033 54.9918 27.5813C54.9918 26.8703 54.955 26.1655 54.8999 25.4634ZM52.2336 20.7544C52.1171 20.6509 52.0095 20.5312 51.8877 20.4358C50.6887 19.5254 49.3298 18.8466 47.8812 18.4348C46.5621 18.1037 45.1835 18.0893 43.8577 18.3927C42.73 18.6481 41.5605 18.6539 40.4301 18.4097C38.2364 17.9307 36.5029 17.553 35.5835 16.0848C34.2667 13.974 34.8841 11.0074 36.2735 9.96349C36.7314 9.64761 37.2964 9.52709 37.8435 9.62835C38.8167 9.7081 39.7948 9.54322 40.6882 9.14938C41.639 8.70401 42.4835 8.06106 43.1659 7.26263C43.3393 7.3966 43.5226 7.51713 43.6924 7.65557C47.8333 11.0267 50.8186 15.6058 52.2336 20.7544ZM12.7817 1.88826C16.3272 1.89408 19.1996 4.76654 19.205 8.31152C19.205 11.0563 15.0825 17.3402 12.7817 20.5259C10.6002 17.5777 8.70448 14.4279 7.12106 11.1195C6.68959 10.2408 6.43062 9.28783 6.35848 8.31152C6.36251 4.76564 9.23587 1.89229 12.7817 1.88826ZM1.77043 27.5813C1.77402 25.8716 1.94652 24.1658 2.28524 22.4897C2.38337 23.7653 2.54959 24.9002 2.69835 25.8845C3.26693 29.6468 3.80414 33.1936 6.57713 36.4371C7.73669 37.8036 9.67854 40.0882 12.6809 40.4261C15.6833 40.7639 19.4429 39.0367 20.529 38.499L20.9457 38.2889C21.5228 37.9255 22.1823 37.7145 22.8629 37.675C24.0238 37.7803 25.0991 38.3296 25.8653 39.2083C27.4312 40.9418 27.8287 43.8362 26.7157 45.4021C26.3591 45.8672 25.8666 46.2095 25.3061 46.3816C24.3469 46.7024 23.5314 47.3525 23.0049 48.2168C22.2294 49.621 22.0851 51.2882 22.6084 52.8048C10.5236 50.4633 1.78925 39.8911 1.77043 27.5813ZM27.4635 53.2744C26.5768 53.2744 25.691 53.2287 24.8088 53.1377C24.7335 53.0414 24.6636 52.941 24.5996 52.8366C23.9794 51.6896 23.9727 50.3083 24.5821 49.1554C24.9132 48.6294 25.4262 48.2437 26.023 48.0716C26.8981 47.7701 27.6615 47.2096 28.2113 46.4649C29.8073 44.2206 29.3556 40.3324 27.2296 37.9806C26.1238 36.7162 24.5592 35.9455 22.8831 35.8398H22.8423C21.8758 35.8689 20.934 36.1494 20.1087 36.6539L19.7171 36.852C17.7121 37.8404 14.8594 38.8176 12.8848 38.5953C10.606 38.3404 9.02349 36.4756 7.97371 35.2408C5.53989 32.3961 5.06361 29.2485 4.5134 25.6059C3.92287 22.4897 3.89957 19.2928 4.44351 16.1681C4.93502 15.173 5.49016 14.2106 6.10623 13.2867C6.13669 13.3476 6.1703 13.4099 6.19808 13.4704C6.25677 13.5869 6.31726 13.7025 6.38133 13.819C6.47318 13.9924 6.56503 14.1658 6.65688 14.3405C6.72006 14.4579 6.78413 14.5753 6.84954 14.6936C6.94677 14.8679 7.0449 15.0422 7.14391 15.2164C7.21023 15.332 7.27609 15.4481 7.3433 15.5637C7.44545 15.738 7.54761 15.9114 7.65066 16.0848C7.71832 16.1986 7.78552 16.3115 7.85408 16.4244C7.9625 16.6076 8.07183 16.7792 8.18115 16.9562C8.24343 17.0566 8.30482 17.1583 8.36441 17.2573C8.50017 17.4751 8.63503 17.6861 8.76989 17.8998C8.80574 17.9549 8.84158 18.0127 8.87653 18.0669C9.04455 18.3273 9.21122 18.5813 9.37476 18.8291C9.43704 18.9209 9.49753 19.0128 9.55846 19.1046C9.65928 19.2561 9.76009 19.4075 9.85821 19.5522L10.076 19.8708C10.1548 19.9873 10.2346 20.1038 10.3116 20.2149L10.5316 20.5312C10.5997 20.6298 10.6678 20.7261 10.7328 20.8184C10.7978 20.9112 10.8713 21.016 10.9394 21.1106C11.007 21.2051 11.0532 21.271 11.1074 21.3471L11.2906 21.6003L11.4403 21.8077L11.5863 22.0089L11.7055 22.1702L11.8175 22.3225L11.8843 22.4144C11.9663 22.5255 12.0286 22.6088 12.046 22.6317C12.219 22.8629 12.491 22.9991 12.78 22.9991C13.0689 22.9991 13.3409 22.8629 13.5139 22.6317C14.2841 21.6106 21.0402 12.5528 21.0402 8.31152C21.0402 8.04359 21.0237 7.77744 20.9981 7.51309C20.99 7.43155 20.9771 7.35 20.9668 7.26846C20.943 7.08476 20.9148 6.90106 20.8753 6.7178C20.8579 6.62595 20.8386 6.53993 20.8184 6.45166C20.7759 6.26796 20.7266 6.08471 20.6706 5.90101C20.6477 5.82753 20.6285 5.75315 20.6043 5.68101C20.5218 5.43503 20.4291 5.19174 20.3238 4.95517C20.3036 4.90992 20.2794 4.86332 20.2584 4.8221C20.1665 4.63123 20.0751 4.44215 19.9694 4.25755C19.9237 4.17511 19.8731 4.09536 19.8238 4.01426C19.7355 3.86954 19.6437 3.72706 19.5482 3.58682C19.4913 3.50527 19.4335 3.42373 19.3739 3.34353C19.3426 3.3032 19.3161 3.26019 19.2821 3.22076C21.1912 2.57781 23.1712 2.16739 25.1789 1.99848C23.7483 4.69888 23.2809 7.19677 23.815 9.4312C24.2133 10.9277 24.9692 12.3055 26.0176 13.4457C26.881 14.5148 27.502 15.2854 27.4635 16.5436C27.3846 19.2045 24.3796 21.4197 23.2424 22.2567C21.7508 23.3307 20.0836 24.1358 18.3152 24.6367C16.6484 25.1811 15.2106 25.6507 14.6609 27.2914C14.1174 29.4582 15.0099 31.7316 16.8828 32.9494C18.0051 33.5556 19.3278 33.6726 20.5393 33.2725C21.8664 32.9642 23.2384 32.8983 24.5888 33.0789C26.3322 33.3258 27.8354 33.5377 28.5482 34.536C28.9712 35.1323 28.9492 35.7488 28.8668 36.8797C28.6786 38.4806 28.8413 40.1035 29.3426 41.6353C29.7611 42.8908 30.3933 44.7865 31.9122 45.0051C32.0108 45.0208 32.1107 45.0289 32.2102 45.0289C33.285 45.0289 33.9428 44.0799 34.6346 43.0817C34.9401 42.6403 35.2771 42.164 35.6808 41.686C37.5693 44.7372 39.4879 47.2835 39.577 47.4045C39.7504 47.6357 40.0224 47.7714 40.3109 47.7714C40.5999 47.7714 40.8719 47.6357 41.0453 47.4045C43.036 44.7386 44.8506 41.9445 46.4766 39.0416C47.6039 39.3682 48.6774 39.8575 49.6631 40.4942C45.0719 48.4085 36.6132 53.2784 27.4635 53.2744ZM44.5907 28.3036C45.9541 29.5196 46.7337 31.2598 46.7333 33.087C46.7333 33.747 46.4654 35.0553 45.1929 37.5402C43.7403 40.2325 42.1094 42.824 40.31 45.2977C39.4466 44.0947 37.9609 41.9593 36.6315 39.715C35.8904 38.4846 35.2287 37.209 34.6493 35.8949C34.2179 35.0163 33.9589 34.0633 33.8868 33.087C33.8908 29.5411 36.7641 26.6677 40.31 26.6637C40.5085 26.6637 40.7052 26.6727 40.901 26.6906C42.2729 26.8147 43.5678 27.381 44.5907 28.3036ZM53.1243 28.8323C52.9661 32.3226 52.0866 35.7421 50.5404 38.8754C49.535 38.2396 48.4516 37.7351 47.318 37.3739C48.0268 36.0472 48.4529 34.5871 48.5685 33.087C48.5609 29.9381 46.7705 27.0652 43.9464 25.6708L43.8886 25.6453C43.6834 25.5463 43.4751 25.4535 43.2622 25.3702C43.1162 25.3133 42.9647 25.2689 42.8151 25.2214C42.7232 25.1937 42.6408 25.1592 42.5516 25.1296C42.3151 25.0624 42.0745 25.0077 41.8325 24.9625H41.8204C41.6739 24.9351 41.5251 24.9203 41.3764 24.9011C39.017 24.5744 36.632 25.29 34.842 26.8613C33.0516 28.4331 32.0332 30.7051 32.0515 33.087C32.1228 34.3102 32.4315 35.5082 32.9602 36.6136C33.4746 37.7848 34.0548 38.926 34.6982 40.0313C34.1247 40.659 33.5996 41.3289 33.1269 42.0355C32.8746 42.4678 32.556 42.8576 32.1828 43.191C31.9991 43.1632 31.659 42.7716 31.0815 41.0547C30.6603 39.7513 30.5282 38.3713 30.6953 37.0119C30.9337 35.791 30.6993 34.5252 30.0402 33.4705C28.8686 31.832 26.8232 31.5434 24.833 31.2612C23.2859 31.0497 21.7132 31.1205 20.1916 31.4695C19.0177 31.694 18.4729 31.7778 17.8497 31.3893C16.7112 30.6088 16.1421 29.2284 16.3998 27.8721C16.6448 27.1382 17.3792 26.8729 18.8775 26.381C20.8341 25.8196 22.6783 24.9235 24.3289 23.7321C25.6659 22.7513 29.1925 20.1486 29.2987 16.5978C29.3574 14.655 28.3856 13.4565 27.446 12.2978C26.5777 11.3677 25.9459 10.2426 25.6036 9.0172C25.1162 6.97274 25.7201 4.57522 27.3582 1.88826H27.4635C32.5153 1.89543 37.4537 3.38833 41.6636 6.18104C41.1775 6.72273 40.5892 7.16272 39.9319 7.47591C39.2921 7.7528 38.5926 7.86213 37.8986 7.79402C36.9335 7.67484 35.9594 7.9253 35.1713 8.49522C33.0906 10.0616 32.1582 14.056 34.0283 17.0557C35.3595 19.1817 37.6334 19.6772 40.1165 20.2185C41.453 20.5008 42.8344 20.4949 44.1686 20.201C45.2395 19.9456 46.356 19.9488 47.4251 20.2113C48.6281 20.5581 49.7572 21.1236 50.7563 21.8785C51.794 22.7392 52.5808 23.8629 53.0347 25.1323C53.11 25.9428 53.1566 26.7556 53.1566 27.5813C53.1566 27.9917 53.1485 28.4071 53.1207 28.8323H53.1243Z" fill="#41484E"/>
<path d="M54.8999 25.4634C54.9317 25.3774 54.9501 25.2873 54.9541 25.1954C54.9541 25.0987 54.9385 25.0023 54.9084 24.9105L54.8377 24.7102C54.0885 17.4697 50.4942 10.8233 44.8448 6.23346C44.4411 5.90459 44.019 5.60753 43.5969 5.30286C43.5759 5.28538 43.5647 5.26074 43.5418 5.24416C43.519 5.22758 43.5006 5.22938 43.4813 5.21728C38.8104 1.86899 33.2107 0.0637914 27.4635 0.0530382C27.2269 0.0530382 26.989 0.0530382 26.812 0.0714083C23.7465 0.130999 20.7141 0.714362 17.8452 1.79641C15.358 -0.143656 11.982 -0.495377 9.14805 0.890446C6.31412 2.27627 4.51878 5.15724 4.52326 8.31152C4.57837 9.36086 4.82211 10.3914 5.24373 11.3533C4.3073 12.6334 3.48289 13.9915 2.77989 15.4131C2.766 15.4351 2.75794 15.4588 2.74584 15.4817C-3.75987 28.9335 1.65349 45.1194 14.9431 51.9504C28.2324 58.7818 44.545 53.7641 51.6977 40.6447C53.6566 37.0357 54.77 33.0287 54.9532 28.9268C54.9819 28.4841 54.9918 28.033 54.9918 27.5813C54.9918 26.8703 54.955 26.1655 54.8999 25.4634ZM52.2336 20.7544C52.1171 20.6509 52.0095 20.5312 51.8877 20.4358C50.6887 19.5254 49.3298 18.8466 47.8812 18.4348C46.5621 18.1037 45.1835 18.0893 43.8577 18.3927C42.73 18.6481 41.5605 18.6539 40.4301 18.4097C38.2364 17.9307 36.5029 17.553 35.5835 16.0848C34.2667 13.974 34.8841 11.0074 36.2735 9.96349C36.7314 9.64761 37.2964 9.52709 37.8435 9.62835C38.8167 9.7081 39.7948 9.54322 40.6882 9.14938C41.639 8.70401 42.4835 8.06106 43.1659 7.26263C43.3393 7.3966 43.5226 7.51713 43.6924 7.65557C47.8333 11.0267 50.8186 15.6058 52.2336 20.7544ZM12.7817 1.88826C16.3272 1.89408 19.1996 4.76654 19.205 8.31152C19.205 11.0563 15.0825 17.3402 12.7817 20.5259C10.6002 17.5777 8.70448 14.4279 7.12106 11.1195C6.68959 10.2408 6.43062 9.28783 6.35848 8.31152C6.36251 4.76564 9.23587 1.89229 12.7817 1.88826ZM1.77043 27.5813C1.77402 25.8716 1.94652 24.1658 2.28524 22.4897C2.38337 23.7653 2.54959 24.9002 2.69835 25.8845C3.26693 29.6468 3.80414 33.1936 6.57713 36.4371C7.73669 37.8036 9.67854 40.0882 12.6809 40.4261C15.6833 40.7639 19.4429 39.0367 20.529 38.499L20.9457 38.2889C21.5228 37.9255 22.1823 37.7145 22.8629 37.675C24.0238 37.7803 25.0991 38.3296 25.8653 39.2083C27.4312 40.9418 27.8287 43.8362 26.7157 45.4021C26.3591 45.8672 25.8666 46.2095 25.3061 46.3816C24.3469 46.7024 23.5314 47.3525 23.0049 48.2168C22.2294 49.621 22.0851 51.2882 22.6084 52.8048C10.5236 50.4633 1.78925 39.8911 1.77043 27.5813ZM27.4635 53.2744C26.5768 53.2744 25.691 53.2287 24.8088 53.1377C24.7335 53.0414 24.6636 52.941 24.5996 52.8366C23.9794 51.6896 23.9727 50.3083 24.5821 49.1554C24.9132 48.6294 25.4262 48.2437 26.023 48.0716C26.8981 47.7701 27.6615 47.2096 28.2113 46.4649C29.8073 44.2206 29.3556 40.3324 27.2296 37.9806C26.1238 36.7162 24.5592 35.9455 22.8831 35.8398H22.8423C21.8758 35.8689 20.934 36.1494 20.1087 36.6539L19.7171 36.852C17.7121 37.8404 14.8594 38.8176 12.8848 38.5953C10.606 38.3404 9.02349 36.4756 7.97371 35.2408C5.53989 32.3961 5.06361 29.2485 4.5134 25.6059C3.92287 22.4897 3.89957 19.2928 4.44351 16.1681C4.93502 15.173 5.49016 14.2106 6.10623 13.2867C6.13669 13.3476 6.1703 13.4099 6.19808 13.4704C6.25677 13.5869 6.31726 13.7025 6.38133 13.819C6.47318 13.9924 6.56503 14.1658 6.65688 14.3405C6.72006 14.4579 6.78413 14.5753 6.84954 14.6936C6.94677 14.8679 7.0449 15.0422 7.14391 15.2164C7.21023 15.332 7.27609 15.4481 7.3433 15.5637C7.44545 15.738 7.54761 15.9114 7.65066 16.0848C7.71832 16.1986 7.78552 16.3115 7.85408 16.4244C7.9625 16.6076 8.07183 16.7792 8.18115 16.9562C8.24343 17.0566 8.30482 17.1583 8.36441 17.2573C8.50017 17.4751 8.63503 17.6861 8.76989 17.8998C8.80574 17.9549 8.84158 18.0127 8.87653 18.0669C9.04455 18.3273 9.21122 18.5813 9.37476 18.8291C9.43704 18.9209 9.49753 19.0128 9.55846 19.1046C9.65928 19.2561 9.76009 19.4075 9.85821 19.5522L10.076 19.8708C10.1548 19.9873 10.2346 20.1038 10.3116 20.2149L10.5316 20.5312C10.5997 20.6298 10.6678 20.7261 10.7328 20.8184C10.7978 20.9112 10.8713 21.016 10.9394 21.1106C11.007 21.2051 11.0532 21.271 11.1074 21.3471L11.2906 21.6003L11.4403 21.8077L11.5863 22.0089L11.7055 22.1702L11.8175 22.3225L11.8843 22.4144C11.9663 22.5255 12.0286 22.6088 12.046 22.6317C12.219 22.8629 12.491 22.9991 12.78 22.9991C13.0689 22.9991 13.3409 22.8629 13.5139 22.6317C14.2841 21.6106 21.0402 12.5528 21.0402 8.31152C21.0402 8.04359 21.0237 7.77744 20.9981 7.51309C20.99 7.43155 20.9771 7.35 20.9668 7.26846C20.943 7.08476 20.9148 6.90106 20.8753 6.7178C20.8579 6.62595 20.8386 6.53993 20.8184 6.45166C20.7759 6.26796 20.7266 6.08471 20.6706 5.90101C20.6477 5.82753 20.6285 5.75315 20.6043 5.68101C20.5218 5.43503 20.4291 5.19174 20.3238 4.95517C20.3036 4.90992 20.2794 4.86332 20.2584 4.8221C20.1665 4.63123 20.0751 4.44215 19.9694 4.25755C19.9237 4.17511 19.8731 4.09536 19.8238 4.01426C19.7355 3.86954 19.6437 3.72706 19.5482 3.58682C19.4913 3.50527 19.4335 3.42373 19.3739 3.34353C19.3426 3.3032 19.3161 3.26019 19.2821 3.22076C21.1912 2.57781 23.1712 2.16739 25.1789 1.99848C23.7483 4.69888 23.2809 7.19677 23.815 9.4312C24.2133 10.9277 24.9692 12.3055 26.0176 13.4457C26.881 14.5148 27.502 15.2854 27.4635 16.5436C27.3846 19.2045 24.3796 21.4197 23.2424 22.2567C21.7508 23.3307 20.0836 24.1358 18.3152 24.6367C16.6484 25.1811 15.2106 25.6507 14.6609 27.2914C14.1174 29.4582 15.0099 31.7316 16.8828 32.9494C18.0051 33.5556 19.3278 33.6726 20.5393 33.2725C21.8664 32.9642 23.2384 32.8983 24.5888 33.0789C26.3322 33.3258 27.8354 33.5377 28.5482 34.536C28.9712 35.1323 28.9492 35.7488 28.8668 36.8797C28.6786 38.4806 28.8413 40.1035 29.3426 41.6353C29.7611 42.8908 30.3933 44.7865 31.9122 45.0051C32.0108 45.0208 32.1107 45.0289 32.2102 45.0289C33.285 45.0289 33.9428 44.0799 34.6346 43.0817C34.9401 42.6403 35.2771 42.164 35.6808 41.686C37.5693 44.7372 39.4879 47.2835 39.577 47.4045C39.7504 47.6357 40.0224 47.7714 40.3109 47.7714C40.5999 47.7714 40.8719 47.6357 41.0453 47.4045C43.036 44.7386 44.8506 41.9445 46.4766 39.0416C47.6039 39.3682 48.6774 39.8575 49.6631 40.4942C45.0719 48.4085 36.6132 53.2784 27.4635 53.2744ZM44.5907 28.3036C45.9541 29.5196 46.7337 31.2598 46.7333 33.087C46.7333 33.747 46.4654 35.0553 45.1929 37.5402C43.7403 40.2325 42.1094 42.824 40.31 45.2977C39.4466 44.0947 37.9609 41.9593 36.6315 39.715C35.8904 38.4846 35.2287 37.209 34.6493 35.8949C34.2179 35.0163 33.9589 34.0633 33.8868 33.087C33.8908 29.5411 36.7641 26.6677 40.31 26.6637C40.5085 26.6637 40.7052 26.6727 40.901 26.6906C42.2729 26.8147 43.5678 27.381 44.5907 28.3036ZM53.1243 28.8323C52.9661 32.3226 52.0866 35.7421 50.5404 38.8754C49.535 38.2396 48.4516 37.7351 47.318 37.3739C48.0268 36.0472 48.4529 34.5871 48.5685 33.087C48.5609 29.9381 46.7705 27.0652 43.9464 25.6708L43.8886 25.6453C43.6834 25.5463 43.4751 25.4535 43.2622 25.3702C43.1162 25.3133 42.9647 25.2689 42.8151 25.2214C42.7232 25.1937 42.6408 25.1592 42.5516 25.1296C42.3151 25.0624 42.0745 25.0077 41.8325 24.9625H41.8204C41.6739 24.9351 41.5251 24.9203 41.3764 24.9011C39.017 24.5744 36.632 25.29 34.842 26.8613C33.0516 28.4331 32.0332 30.7051 32.0515 33.087C32.1228 34.3102 32.4315 35.5082 32.9602 36.6136C33.4746 37.7848 34.0548 38.926 34.6982 40.0313C34.1247 40.659 33.5996 41.3289 33.1269 42.0355C32.8746 42.4678 32.556 42.8576 32.1828 43.191C31.9991 43.1632 31.659 42.7716 31.0815 41.0547C30.6603 39.7513 30.5282 38.3713 30.6953 37.0119C30.9337 35.791 30.6993 34.5252 30.0402 33.4705C28.8686 31.832 26.8232 31.5434 24.833 31.2612C23.2859 31.0497 21.7132 31.1205 20.1916 31.4695C19.0177 31.694 18.4729 31.7778 17.8497 31.3893C16.7112 30.6088 16.1421 29.2284 16.3998 27.8721C16.6448 27.1382 17.3792 26.8729 18.8775 26.381C20.8341 25.8196 22.6783 24.9235 24.3289 23.7321C25.6659 22.7513 29.1925 20.1486 29.2987 16.5978C29.3574 14.655 28.3856 13.4565 27.446 12.2978C26.5777 11.3677 25.9459 10.2426 25.6036 9.0172C25.1162 6.97274 25.7201 4.57522 27.3582 1.88826H27.4635C32.5153 1.89543 37.4537 3.38833 41.6636 6.18104C41.1775 6.72273 40.5892 7.16272 39.9319 7.47591C39.2921 7.7528 38.5926 7.86213 37.8986 7.79402C36.9335 7.67484 35.9594 7.9253 35.1713 8.49522C33.0906 10.0616 32.1582 14.056 34.0283 17.0557C35.3595 19.1817 37.6334 19.6772 40.1165 20.2185C41.453 20.5008 42.8344 20.4949 44.1686 20.201C45.2395 19.9456 46.356 19.9488 47.4251 20.2113C48.6281 20.5581 49.7572 21.1236 50.7563 21.8785C51.794 22.7392 52.5808 23.8629 53.0347 25.1323C53.11 25.9428 53.1566 26.7556 53.1566 27.5813C53.1566 27.9917 53.1485 28.4071 53.1207 28.8323H53.1243Z" stroke="#41484E" stroke-width="0.459224" mask="url(#path-2-outside-1)"/>
<path d="M16.3953 7.39212C16.3953 9.38787 14.7776 11.0052 12.7823 11.0052C10.7869 11.0052 9.16917 9.38787 9.16917 7.39212C9.16917 5.39681 10.7869 3.77903 12.7823 3.77903C14.7776 3.77903 16.3953 5.39681 16.3953 7.39212ZM14.6748 7.39212C14.6748 6.34695 13.8274 5.49955 12.7823 5.49955C11.7371 5.49955 10.8897 6.34695 10.8897 7.39212C10.8897 8.43728 11.7371 9.28469 12.7823 9.28469C13.8274 9.28469 14.6748 8.43728 14.6748 7.39212Z" fill="#41484E" stroke="#41484E" stroke-width="0.114701"/>
<path d="M40.3101 35.7816C38.3148 35.7816 36.697 34.1642 36.697 32.1685C36.697 30.1732 38.3148 28.5554 40.3101 28.5554C42.3054 28.5554 43.9232 30.1732 43.9232 32.1685C43.9232 34.1642 42.3054 35.7816 40.3101 35.7816ZM40.3101 34.0611C41.3553 34.0611 42.2027 33.2137 42.2027 32.1685C42.2027 31.1233 41.3553 30.2759 40.3101 30.2759C39.2649 30.2759 38.4175 31.1233 38.4175 32.1685C38.4175 33.2137 39.2649 34.0611 40.3101 34.0611Z" fill="#41484E" stroke="#41484E" stroke-width="0.114701"/>
</g>
<defs>
<clipPath id="clip0">
<rect width="54.9921" height="54.9921" fill="white"/>
</clipPath>
</defs>
</svg>
