<svg width="59" height="59" viewBox="0 0 59 59" fill="none" xmlns="http://www.w3.org/2000/svg">
<g clip-path="url(#clip0)">
<path d="M30.1291 18.1821L30.1291 18.182C30.546 17.7856 30.8382 17.4218 31.0294 17.1348C31.1251 16.9913 31.1951 16.8676 31.2426 16.7694C31.2878 16.6762 31.31 16.6115 31.3173 16.5765C31.3243 15.6528 31.6887 14.787 32.3448 14.1369C33.0032 13.4845 33.8761 13.1264 34.8053 13.1264L34.8386 13.1265L34.8388 13.1265L34.8376 13.2413L30.1291 18.1821ZM30.1291 18.1821C29.4465 18.8314 28.2651 19.7262 26.5191 20.293L26.5545 20.4022M30.1291 18.1821L26.5545 20.4022M26.5545 20.4022L26.5191 20.293C25.8064 20.5245 25.1576 20.9499 24.5905 21.5538C24.3122 21.8499 23.9003 22.255 23.3916 22.6653C23.1273 22.5377 22.8314 22.4654 22.5185 22.4654H16.6282C15.5159 22.4654 14.6113 23.3701 14.6113 24.4823V40.1899C14.6113 41.3022 15.5159 42.2068 16.6282 42.2068H22.5185C23.2528 42.2068 23.8956 41.8121 24.2482 41.2251H39.2127C40.8663 41.2251 42.2113 39.8801 42.2113 38.2265C42.2113 37.7102 42.0802 37.2239 41.8494 36.7991C42.6583 36.2618 43.193 35.3421 43.193 34.2995C43.193 33.7833 43.0619 33.297 42.8311 32.8722C43.64 32.3348 44.1748 31.4152 44.1748 30.3726C44.1748 29.7874 44.0062 29.2406 43.7151 28.7785C44.5877 28.1438 45.1566 27.1145 45.1566 25.9546C45.1566 24.0303 43.5913 22.4652 41.667 22.4652M26.5545 20.4022L41.667 22.4652M41.667 22.4652H35.7178H41.667ZM26.0995 22.9709L26.0996 22.9708C26.4296 22.6192 26.7861 22.3828 27.1583 22.2621L27.1583 22.2621C29.3451 21.5522 30.8178 20.4087 31.669 19.5729C32.202 19.0497 32.6299 18.513 32.9253 18.0066C33.2195 17.502 33.3875 17.0184 33.3875 16.6034C33.3875 16.2257 33.5345 15.8724 33.8019 15.6075L33.7211 15.526L33.8019 15.6075C34.072 15.3399 34.43 15.1975 34.82 15.1968C35.2926 15.2014 35.6057 15.4422 35.7882 15.6477C36.1011 16.0001 36.2579 16.5112 36.2027 17.0137C36.0062 18.8013 34.568 21.0369 32.5187 22.6958L32.5187 22.6958C32.1779 22.9718 32.0479 23.4325 32.1942 23.8458C32.3405 24.2592 32.7315 24.5355 33.17 24.5355H41.6668C42.4493 24.5355 43.0859 25.1721 43.0859 25.9546C43.0859 26.7371 42.4494 27.3737 41.667 27.3737H41.1761C40.6045 27.3737 40.1409 27.8372 40.1409 28.4089C40.1409 28.9806 40.6044 29.4441 41.1761 29.4441C41.6879 29.4441 42.1045 29.8607 42.1045 30.3725C42.1045 30.8842 41.6879 31.3008 41.1761 31.3008H40.1944C39.6228 31.3008 39.1592 31.7642 39.1592 32.336C39.1592 32.9076 39.6227 33.3712 40.1944 33.3712C40.7062 33.3712 41.1228 33.7877 41.1228 34.2995C41.1228 34.8113 40.7062 35.2278 40.1944 35.2278H39.2127C38.6411 35.2278 38.1775 35.6913 38.1775 36.2631C38.1775 36.8347 38.6409 37.2983 39.2127 37.2983C39.7245 37.2983 40.141 37.7148 40.141 38.2266C40.141 38.7384 39.7245 39.1549 39.2127 39.1549H24.5355V30.3728C24.5355 29.8012 24.072 29.3376 23.5002 29.3376C22.9285 29.3376 22.465 29.801 22.465 30.3728V40.1365H16.6817V24.5355H22.465V26.4455C22.465 27.0172 22.9285 27.4807 23.5002 27.4807C24.072 27.4807 24.5355 27.0173 24.5355 26.4455V24.482C24.5355 24.455 24.5342 24.4282 24.5327 24.4028C25.206 23.8764 25.745 23.3483 26.0995 22.9709Z" fill="#41484E" stroke="#41484E" stroke-width="0.229612"/>
<path d="M18.5331 37.2397C18.5331 36.668 19.0015 36.1996 19.5732 36.1996C20.1449 36.1996 20.6133 36.6681 20.6132 37.2397H18.5331ZM18.5331 37.2397C18.5331 37.8113 19.0015 38.2797 19.5732 38.2797M18.5331 37.2397L19.5732 38.2797M19.5732 38.2797C20.1448 38.2797 20.6132 37.8113 20.6132 37.2397L19.5732 38.2797Z" fill="#41484E" stroke="#41484E" stroke-width="0.229612"/>
<mask id="path-4-outside-1" maskUnits="userSpaceOnUse" x="-1.00049" y="-1" width="61" height="61" fill="black">
<rect fill="white" x="-1.00049" y="-1" width="61" height="61"/>
<path d="M57.1397 29.3903L58.7208 25.2064C58.8359 24.9021 58.7817 24.5596 58.5781 24.3056L55.7815 20.815L55.9923 16.3473C56.0077 16.0224 55.8502 15.7132 55.5783 15.5347L51.84 13.0791L50.66 8.76494C50.5742 8.45106 50.3289 8.20584 50.0152 8.12008L45.701 6.9401L43.2454 3.2019C43.0668 2.92992 42.7577 2.7731 42.4328 2.78791L37.9651 2.99869L34.4746 0.202131C34.2206 -0.0013058 33.8781 -0.0556091 33.5737 0.0594266L29.3898 1.64054L25.2061 0.0595414C24.9016 -0.0556091 24.5592 -0.00130582 24.3053 0.202245L20.8147 2.99881L16.347 2.78802C16.0205 2.77264 15.7129 2.93015 15.5344 3.20201L13.0789 6.94033L8.76476 8.12031C8.45088 8.20618 8.20566 8.45141 8.1199 8.76517L6.93992 13.0794L3.2016 15.5348C2.92963 15.7135 2.77223 16.0225 2.78761 16.3474L2.9984 20.8151L0.201835 24.3057C-0.00160126 24.5596 -0.0559045 24.9021 0.0591312 25.2066L1.64013 29.3903L0.0590164 33.5741C-0.0561342 33.8784 -0.00183087 34.2209 0.20172 34.475L2.99828 37.9655L2.7875 42.4332C2.77211 42.7581 2.92963 43.0673 3.20149 43.2458L6.93981 45.7014L8.11978 50.0156C8.20566 50.3295 8.45088 50.5747 8.76465 50.6604L13.0788 51.8404L15.5343 55.5787C15.7129 55.8507 16.0226 56.0071 16.3469 55.9927L20.8146 55.7819L24.3051 58.5785C24.5591 58.7821 24.9017 58.8364 25.206 58.7212L29.3899 57.1401L33.5738 58.7212C33.6794 58.761 33.7895 58.7806 33.899 58.7806C34.1052 58.7806 34.3088 58.7113 34.4746 58.5785L37.9651 55.7819L42.4328 55.9927C42.7587 56.0072 43.0668 55.8506 43.2454 55.5787L45.701 51.8404L50.0152 50.6604C50.3291 50.5746 50.5743 50.3293 50.66 50.0156L51.84 45.7014L55.5783 43.2458C55.8503 43.0672 56.0077 42.7581 55.9923 42.4332L55.7815 37.9655L58.5781 34.475C58.7815 34.221 58.8358 33.8785 58.7208 33.5741L57.1397 29.3903ZM55.2949 29.7157L56.8133 33.7338L54.1275 37.086C53.9873 37.2609 53.9158 37.4809 53.9264 37.7048L54.1289 41.9955L50.5388 44.3537C50.3516 44.4766 50.2154 44.6639 50.1563 44.8802L49.023 49.0234L44.8798 50.1567C44.6636 50.2158 44.4765 50.3518 44.3533 50.5392L41.995 54.1293L37.7044 53.9268C37.4804 53.9165 37.2604 53.9878 37.0856 54.1279L33.7334 56.8137L29.7153 55.2953C29.6105 55.2557 29.5001 55.2359 29.3899 55.2359C29.2797 55.2359 29.1694 55.2558 29.0645 55.2953L25.0464 56.8137L21.6942 54.1279C21.5194 53.9878 21.2989 53.9165 21.0754 53.9268L16.7848 54.1293L14.4265 50.5392C14.3036 50.352 14.1163 50.2158 13.9 50.1567L9.7568 49.0234L8.62355 44.8802C8.56443 44.664 8.42838 44.4769 8.24102 44.3537L4.65092 41.9955L4.85343 37.7048C4.864 37.4808 4.79247 37.2609 4.65229 37.086L1.96652 33.7338L3.48506 29.7157C3.56428 29.506 3.56428 29.2746 3.48506 29.065L1.96652 25.0469L4.65229 21.6946C4.79247 21.5198 4.864 21.2997 4.85343 21.0758L4.65092 16.7852L8.24102 14.427C8.42827 14.304 8.56443 14.1167 8.62355 13.9004L9.7568 9.75721L13.9 8.62396C14.1162 8.56484 14.3034 8.42879 14.4265 8.24143L16.7848 4.65133L21.0754 4.85384C21.2991 4.86429 21.5194 4.79288 21.6942 4.6527L25.0464 1.96693L29.0645 3.48547C29.2743 3.56469 29.5056 3.56469 29.7153 3.48547L33.7334 1.96693L37.0856 4.6527C37.2604 4.793 37.4806 4.86441 37.7044 4.85384L41.995 4.65133L44.3533 8.24143C44.4762 8.42868 44.6635 8.56484 44.8798 8.62396L49.023 9.75721L50.1563 13.9004C50.2154 14.1166 50.3514 14.3038 50.5388 14.427L54.1289 16.7852L53.9264 21.0758C53.9158 21.2998 53.9873 21.5198 54.1275 21.6946L56.8133 25.0469L55.2948 29.065C55.2157 29.2747 55.2157 29.506 55.2949 29.7157Z"/>
</mask>
<path d="M57.1397 29.3903L58.7208 25.2064C58.8359 24.9021 58.7817 24.5596 58.5781 24.3056L55.7815 20.815L55.9923 16.3473C56.0077 16.0224 55.8502 15.7132 55.5783 15.5347L51.84 13.0791L50.66 8.76494C50.5742 8.45106 50.3289 8.20584 50.0152 8.12008L45.701 6.9401L43.2454 3.2019C43.0668 2.92992 42.7577 2.7731 42.4328 2.78791L37.9651 2.99869L34.4746 0.202131C34.2206 -0.0013058 33.8781 -0.0556091 33.5737 0.0594266L29.3898 1.64054L25.2061 0.0595414C24.9016 -0.0556091 24.5592 -0.00130582 24.3053 0.202245L20.8147 2.99881L16.347 2.78802C16.0205 2.77264 15.7129 2.93015 15.5344 3.20201L13.0789 6.94033L8.76476 8.12031C8.45088 8.20618 8.20566 8.45141 8.1199 8.76517L6.93992 13.0794L3.2016 15.5348C2.92963 15.7135 2.77223 16.0225 2.78761 16.3474L2.9984 20.8151L0.201835 24.3057C-0.00160126 24.5596 -0.0559045 24.9021 0.0591312 25.2066L1.64013 29.3903L0.0590164 33.5741C-0.0561342 33.8784 -0.00183087 34.2209 0.20172 34.475L2.99828 37.9655L2.7875 42.4332C2.77211 42.7581 2.92963 43.0673 3.20149 43.2458L6.93981 45.7014L8.11978 50.0156C8.20566 50.3295 8.45088 50.5747 8.76465 50.6604L13.0788 51.8404L15.5343 55.5787C15.7129 55.8507 16.0226 56.0071 16.3469 55.9927L20.8146 55.7819L24.3051 58.5785C24.5591 58.7821 24.9017 58.8364 25.206 58.7212L29.3899 57.1401L33.5738 58.7212C33.6794 58.761 33.7895 58.7806 33.899 58.7806C34.1052 58.7806 34.3088 58.7113 34.4746 58.5785L37.9651 55.7819L42.4328 55.9927C42.7587 56.0072 43.0668 55.8506 43.2454 55.5787L45.701 51.8404L50.0152 50.6604C50.3291 50.5746 50.5743 50.3293 50.66 50.0156L51.84 45.7014L55.5783 43.2458C55.8503 43.0672 56.0077 42.7581 55.9923 42.4332L55.7815 37.9655L58.5781 34.475C58.7815 34.221 58.8358 33.8785 58.7208 33.5741L57.1397 29.3903ZM55.2949 29.7157L56.8133 33.7338L54.1275 37.086C53.9873 37.2609 53.9158 37.4809 53.9264 37.7048L54.1289 41.9955L50.5388 44.3537C50.3516 44.4766 50.2154 44.6639 50.1563 44.8802L49.023 49.0234L44.8798 50.1567C44.6636 50.2158 44.4765 50.3518 44.3533 50.5392L41.995 54.1293L37.7044 53.9268C37.4804 53.9165 37.2604 53.9878 37.0856 54.1279L33.7334 56.8137L29.7153 55.2953C29.6105 55.2557 29.5001 55.2359 29.3899 55.2359C29.2797 55.2359 29.1694 55.2558 29.0645 55.2953L25.0464 56.8137L21.6942 54.1279C21.5194 53.9878 21.2989 53.9165 21.0754 53.9268L16.7848 54.1293L14.4265 50.5392C14.3036 50.352 14.1163 50.2158 13.9 50.1567L9.7568 49.0234L8.62355 44.8802C8.56443 44.664 8.42838 44.4769 8.24102 44.3537L4.65092 41.9955L4.85343 37.7048C4.864 37.4808 4.79247 37.2609 4.65229 37.086L1.96652 33.7338L3.48506 29.7157C3.56428 29.506 3.56428 29.2746 3.48506 29.065L1.96652 25.0469L4.65229 21.6946C4.79247 21.5198 4.864 21.2997 4.85343 21.0758L4.65092 16.7852L8.24102 14.427C8.42827 14.304 8.56443 14.1167 8.62355 13.9004L9.7568 9.75721L13.9 8.62396C14.1162 8.56484 14.3034 8.42879 14.4265 8.24143L16.7848 4.65133L21.0754 4.85384C21.2991 4.86429 21.5194 4.79288 21.6942 4.6527L25.0464 1.96693L29.0645 3.48547C29.2743 3.56469 29.5056 3.56469 29.7153 3.48547L33.7334 1.96693L37.0856 4.6527C37.2604 4.793 37.4806 4.86441 37.7044 4.85384L41.995 4.65133L44.3533 8.24143C44.4762 8.42868 44.6635 8.56484 44.8798 8.62396L49.023 9.75721L50.1563 13.9004C50.2154 14.1166 50.3514 14.3038 50.5388 14.427L54.1289 16.7852L53.9264 21.0758C53.9158 21.2998 53.9873 21.5198 54.1275 21.6946L56.8133 25.0469L55.2948 29.065C55.2157 29.2747 55.2157 29.506 55.2949 29.7157Z" fill="#41484E"/>
<path d="M57.1397 29.3903L58.7208 25.2064C58.8359 24.9021 58.7817 24.5596 58.5781 24.3056L55.7815 20.815L55.9923 16.3473C56.0077 16.0224 55.8502 15.7132 55.5783 15.5347L51.84 13.0791L50.66 8.76494C50.5742 8.45106 50.3289 8.20584 50.0152 8.12008L45.701 6.9401L43.2454 3.2019C43.0668 2.92992 42.7577 2.7731 42.4328 2.78791L37.9651 2.99869L34.4746 0.202131C34.2206 -0.0013058 33.8781 -0.0556091 33.5737 0.0594266L29.3898 1.64054L25.2061 0.0595414C24.9016 -0.0556091 24.5592 -0.00130582 24.3053 0.202245L20.8147 2.99881L16.347 2.78802C16.0205 2.77264 15.7129 2.93015 15.5344 3.20201L13.0789 6.94033L8.76476 8.12031C8.45088 8.20618 8.20566 8.45141 8.1199 8.76517L6.93992 13.0794L3.2016 15.5348C2.92963 15.7135 2.77223 16.0225 2.78761 16.3474L2.9984 20.8151L0.201835 24.3057C-0.00160126 24.5596 -0.0559045 24.9021 0.0591312 25.2066L1.64013 29.3903L0.0590164 33.5741C-0.0561342 33.8784 -0.00183087 34.2209 0.20172 34.475L2.99828 37.9655L2.7875 42.4332C2.77211 42.7581 2.92963 43.0673 3.20149 43.2458L6.93981 45.7014L8.11978 50.0156C8.20566 50.3295 8.45088 50.5747 8.76465 50.6604L13.0788 51.8404L15.5343 55.5787C15.7129 55.8507 16.0226 56.0071 16.3469 55.9927L20.8146 55.7819L24.3051 58.5785C24.5591 58.7821 24.9017 58.8364 25.206 58.7212L29.3899 57.1401L33.5738 58.7212C33.6794 58.761 33.7895 58.7806 33.899 58.7806C34.1052 58.7806 34.3088 58.7113 34.4746 58.5785L37.9651 55.7819L42.4328 55.9927C42.7587 56.0072 43.0668 55.8506 43.2454 55.5787L45.701 51.8404L50.0152 50.6604C50.3291 50.5746 50.5743 50.3293 50.66 50.0156L51.84 45.7014L55.5783 43.2458C55.8503 43.0672 56.0077 42.7581 55.9923 42.4332L55.7815 37.9655L58.5781 34.475C58.7815 34.221 58.8358 33.8785 58.7208 33.5741L57.1397 29.3903ZM55.2949 29.7157L56.8133 33.7338L54.1275 37.086C53.9873 37.2609 53.9158 37.4809 53.9264 37.7048L54.1289 41.9955L50.5388 44.3537C50.3516 44.4766 50.2154 44.6639 50.1563 44.8802L49.023 49.0234L44.8798 50.1567C44.6636 50.2158 44.4765 50.3518 44.3533 50.5392L41.995 54.1293L37.7044 53.9268C37.4804 53.9165 37.2604 53.9878 37.0856 54.1279L33.7334 56.8137L29.7153 55.2953C29.6105 55.2557 29.5001 55.2359 29.3899 55.2359C29.2797 55.2359 29.1694 55.2558 29.0645 55.2953L25.0464 56.8137L21.6942 54.1279C21.5194 53.9878 21.2989 53.9165 21.0754 53.9268L16.7848 54.1293L14.4265 50.5392C14.3036 50.352 14.1163 50.2158 13.9 50.1567L9.7568 49.0234L8.62355 44.8802C8.56443 44.664 8.42838 44.4769 8.24102 44.3537L4.65092 41.9955L4.85343 37.7048C4.864 37.4808 4.79247 37.2609 4.65229 37.086L1.96652 33.7338L3.48506 29.7157C3.56428 29.506 3.56428 29.2746 3.48506 29.065L1.96652 25.0469L4.65229 21.6946C4.79247 21.5198 4.864 21.2997 4.85343 21.0758L4.65092 16.7852L8.24102 14.427C8.42827 14.304 8.56443 14.1167 8.62355 13.9004L9.7568 9.75721L13.9 8.62396C14.1162 8.56484 14.3034 8.42879 14.4265 8.24143L16.7848 4.65133L21.0754 4.85384C21.2991 4.86429 21.5194 4.79288 21.6942 4.6527L25.0464 1.96693L29.0645 3.48547C29.2743 3.56469 29.5056 3.56469 29.7153 3.48547L33.7334 1.96693L37.0856 4.6527C37.2604 4.793 37.4806 4.86441 37.7044 4.85384L41.995 4.65133L44.3533 8.24143C44.4762 8.42868 44.6635 8.56484 44.8798 8.62396L49.023 9.75721L50.1563 13.9004C50.2154 14.1166 50.3514 14.3038 50.5388 14.427L54.1289 16.7852L53.9264 21.0758C53.9158 21.2998 53.9873 21.5198 54.1275 21.6946L56.8133 25.0469L55.2948 29.065C55.2157 29.2747 55.2157 29.506 55.2949 29.7157Z" stroke="#41484E" stroke-width="0.459224" mask="url(#path-4-outside-1)"/>
<path d="M46.7691 13.4207L46.7691 13.4207L43.9185 13.4954C43.9185 13.4954 43.9186 13.4954 43.9186 13.4954C44.1473 13.7056 44.3751 13.9237 44.5952 14.1439C44.8153 14.364 45.0336 14.5918 45.2438 14.8207C45.448 15.0431 45.7271 15.1558 46.0067 15.1558C46.2567 15.1558 46.5078 15.0656 46.7064 14.8832C47.1277 14.4967 47.1557 13.8418 46.7691 13.4207ZM43.9404 12.1102L43.9404 12.1102L43.9404 12.1102Z" fill="#41484E" stroke="#41484E" stroke-width="0.229612"/>
<path d="M26.9143 5.89014L26.9143 5.89014C21.5467 6.44623 16.4857 8.85759 12.6628 12.6803L12.744 12.7615L12.6628 12.6803C8.45583 16.8873 6.00628 22.4763 5.76563 28.4173L5.88033 28.4219L5.76563 28.4173C5.52648 34.3232 7.48264 40.0576 11.274 44.5634C11.4787 44.8068 11.7718 44.9321 12.0667 44.9321C12.3019 44.9321 12.5386 44.8522 12.7326 44.6891L12.7327 44.6891C13.17 44.3209 13.2263 43.668 12.8583 43.2306C9.40036 39.1208 7.61612 33.8901 7.83425 28.5012C8.05374 23.0811 10.2883 17.9826 14.1266 14.1443L14.0455 14.0631L14.1266 14.1443C17.6142 10.6566 22.2316 8.45659 27.1275 7.94946C31.9554 7.44926 36.8541 8.60152 40.9217 11.1929L40.9833 11.0961L40.9217 11.1929C41.4039 11.5001 42.0436 11.3583 42.3508 10.8762C42.6582 10.3939 42.5162 9.75407 42.0342 9.44687L41.9725 9.54369L42.0342 9.44686C37.5738 6.60518 32.2041 5.3425 26.9143 5.89014Z" fill="#41484E" stroke="#41484E" stroke-width="0.229612"/>
<path d="M49.2928 16.7052C48.9856 16.2229 48.3454 16.0811 47.8635 16.3883C47.3812 16.6955 47.2395 17.3354 47.5467 17.8175C50.1381 21.8851 51.2902 26.7841 50.7902 31.6116C50.2831 36.5075 48.083 41.1248 44.5954 44.6126C40.7571 48.4508 35.6585 50.6855 30.2385 50.905C24.8506 51.124 19.6188 49.339 15.5092 45.8812C15.0718 45.513 14.4188 45.5694 14.0507 46.0068C13.6825 46.4442 13.7389 47.0972 14.1763 47.4653L14.2502 47.3775L14.1763 47.4653C18.4359 51.0493 23.7925 52.9934 29.3548 52.9933C29.6766 52.9933 29.9996 52.9867 30.3226 52.9737C36.2636 52.7332 41.8524 50.2836 46.0596 46.0766C49.8824 42.2538 52.2939 37.1927 52.8497 31.825C53.3975 26.5349 52.1345 21.1654 49.2928 16.7052ZM49.2928 16.7052L49.1959 16.7668M49.2928 16.7052C49.2928 16.7052 49.2928 16.7051 49.2928 16.7051L49.1959 16.7668M49.1959 16.7668C48.9228 16.338 48.3536 16.212 47.9252 16.4851L49.1959 16.7668Z" fill="#41484E" stroke="#41484E" stroke-width="0.229612"/>
</g>
<defs>
<clipPath id="clip0">
<rect width="58.7807" height="58.7807" fill="white"/>
</clipPath>
</defs>
</svg>
