<svg width="13" height="25" viewBox="0 0 13 25" fill="none" xmlns="http://www.w3.org/2000/svg">
<path d="M0 22.5V2.5C0 1.125 0.975 0 2.16667 0H10.8333C12.025 0 13 1.125 13 2.5V22.5C13 23.875 12.025 25 10.8333 25H2.16667C0.975 25 0 23.875 0 22.5Z" fill="#D5AC63"/>
<path d="M10.8333 1.875H2.16667C1.84167 1.875 1.625 2.125 1.625 2.5V20.625C1.625 21 1.84167 21.25 2.16667 21.25H10.8333C11.1583 21.25 11.375 21 11.375 20.625V2.5C11.375 2.125 11.1583 1.875 10.8333 1.875Z" fill="white"/>
<path d="M6.6875 24.1875C7.23978 24.1875 7.6875 23.7398 7.6875 23.1875C7.6875 22.6352 7.23978 22.1875 6.6875 22.1875C6.13522 22.1875 5.6875 22.6352 5.6875 23.1875C5.6875 23.7398 6.13522 24.1875 6.6875 24.1875Z" fill="white"/>
</svg>
