<svg width="89" height="89" viewBox="0 0 89 89" fill="none" xmlns="http://www.w3.org/2000/svg">
<g clip-path="url(#clip0)">
<path d="M81.5797 13.2615C76.9629 8.64481 70.8509 6.1215 64.3277 6.1215C57.8045 6.1215 51.6738 8.6635 47.0571 13.2802L44.6459 15.6914L42.1974 13.2428C37.5807 8.62612 31.4313 6.06543 24.908 6.06543C18.4035 6.06543 12.2728 8.60743 7.67479 13.2055C3.05808 17.8222 0.516079 23.9529 0.53477 30.4761C0.53477 36.9993 3.09546 43.1113 7.71218 47.728L42.8142 82.83C43.3001 83.316 43.9543 83.5777 44.5898 83.5777C45.2253 83.5777 45.8795 83.3347 46.3655 82.8487L81.5423 47.8028C86.159 43.1861 88.701 37.0554 88.701 30.5322C88.7197 24.0089 86.1964 17.8782 81.5797 13.2615ZM77.9909 44.2328L44.5898 77.503L11.2635 44.1767C7.60003 40.5132 5.58138 35.6535 5.58138 30.4761C5.58138 25.2986 7.58134 20.4389 11.2448 16.7942C14.8896 13.1494 19.7493 11.1307 24.908 11.1307C30.0855 11.1307 34.9639 13.1494 38.6274 16.8128L42.8516 21.037C43.8422 22.0277 45.4309 22.0277 46.4216 21.037L50.6084 16.8502C54.2719 13.1868 59.1502 11.1681 64.309 11.1681C69.4678 11.1681 74.3275 13.1868 77.9909 16.8315C81.6544 20.495 83.6544 25.3547 83.6544 30.5322C83.673 35.7096 81.6544 40.5693 77.9909 44.2328Z" fill="#D5AC63"/>
</g>
<defs>
<clipPath id="clip0">
<rect x="0.534668" y="0.738281" width="88.1664" height="88.1664" fill="white"/>
</clipPath>
</defs>
</svg>
